<svg width="660" height="541" viewBox="0 0 660 541" fill="none" xmlns="http://www.w3.org/2000/svg">
<path fill-rule="evenodd" clip-rule="evenodd" d="M601.126 11.1306C610.033 -2.19666 631.176 -2.64458 648.35 10.1302C665.525 22.905 672.227 44.0649 663.32 57.3922C659.345 63.3407 652.932 66.7234 645.522 67.5097C665.093 86.8765 674.702 107.542 667.594 118.178C658.687 131.506 626.907 124.042 596.611 101.507C566.315 78.9721 548.976 49.9003 557.883 36.573C563.842 27.656 580.041 28.0465 599.184 36.0311C596.083 27.1337 596.488 18.0703 601.126 11.1306ZM540.006 93.7981C513.246 83.8154 477.174 100.369 440.698 135.106C414.048 113.846 379.217 96.8069 339.796 87.6136C304.93 79.4825 271.237 78.5995 241.869 83.7715C241.832 73.0873 239.488 63.5127 234.626 55.3768C203.805 3.8022 83.4695 29.573 -34.1511 112.937C-151.772 196.302 -222.137 305.692 -191.316 357.266C-164.752 401.718 -71.6915 388.713 28.8147 330.898C33.7607 388.039 97.9452 445.501 184.004 465.57C224.968 475.124 264.314 474.672 296.928 466.149C299.112 502.728 311.4 528.709 333.995 537.138C368.935 550.173 419.754 517.964 466.617 459.109C480.127 476.203 497.341 490.821 517.852 501.641C596.595 543.181 694.103 513.022 735.643 434.28C777.183 355.537 747.024 258.029 668.281 216.489C638.99 201.037 607.102 195.506 576.464 198.706C581.088 144.552 569.08 104.645 540.006 93.7981ZM-43.9375 417.568C-31.2695 393.506 10.4461 392.637 49.2371 415.626C88.028 438.615 109.205 476.758 96.5369 500.82C83.8689 524.882 42.1533 525.751 3.36231 502.762C-35.4286 479.773 -56.6055 441.63 -43.9375 417.568Z" fill="url(#paint0_linear_2330_13297)"/>
<defs>
<linearGradient id="paint0_linear_2330_13297" x1="615.137" y1="308.275" x2="248.572" y2="567.058" gradientUnits="userSpaceOnUse">
<stop stop-color="#00F3C7"/>
<stop offset="0.9999" stop-color="#A63AD8"/>
<stop offset="1" stop-color="#A63AD8"/>
</linearGradient>
</defs>
</svg>
