<svg width="660" height="1150" viewBox="0 0 660 1150" fill="none" xmlns="http://www.w3.org/2000/svg">
<path fill-rule="evenodd" clip-rule="evenodd" d="M474.611 845.835C477.501 793.446 402.729 738.294 294.454 705.407C346.883 676.483 396.453 620.268 427.021 548.031C434.82 529.601 440.948 511.153 445.465 492.994C476.254 578.474 521.554 634.724 567.712 634.525C640.913 634.208 688.554 492.042 674.122 316.988C659.689 141.935 588.649 0.283106 515.448 0.600101C446.7 0.897808 400.496 126.313 407.086 286.582C397.061 277.573 385.541 270.523 372.597 265.8C289.424 235.446 178.94 312.593 125.825 438.112C87.0755 529.683 89.5637 621.701 126.039 676.563C-9.55949 670.045 -113.878 706.566 -117.192 766.636C-119.624 810.722 -67.0603 856.764 14.1838 889.849C1.40713 898.257 -10.2128 908.897 -20.0737 921.692C-67.7565 983.559 -56.2577 1072.37 5.60953 1120.05C67.4768 1167.73 156.285 1156.23 203.967 1094.37C240.642 1046.78 242.306 983.26 212.971 934.771C357.427 945.652 471.149 908.597 474.611 845.835Z" fill="url(#paint0_linear_2379_13261)"/>
<defs>
<linearGradient id="paint0_linear_2379_13261" x1="177.291" y1="1070.13" x2="-87.1344" y2="513.552" gradientUnits="userSpaceOnUse">
<stop stop-color="#00F3C7"/>
<stop offset="0.9999" stop-color="#A63AD8"/>
<stop offset="1" stop-color="#A63AD8"/>
</linearGradient>
</defs>
</svg>
