<svg width="25" height="25" viewBox="0 0 25 25" fill="none" xmlns="http://www.w3.org/2000/svg">
<g clip-path="url(#clip0_2367_13261)">
<path d="M24.5091 12.6084C24.5091 5.9253 19.0914 0.507568 12.4082 0.507568C5.72511 0.507568 0.307373 5.9253 0.307373 12.6084C0.307373 18.6482 4.73246 23.6545 10.5175 24.5623V16.1063H7.44499V12.6084H10.5175V9.94246C10.5175 6.90968 12.3241 5.23447 15.0881 5.23447C16.4117 5.23447 17.7969 5.47081 17.7969 5.47081V8.44876H16.2711C14.7679 8.44876 14.299 9.38161 14.299 10.3395V12.6084H17.6551L17.1186 16.1063H14.299V24.5623C20.084 23.6545 24.5091 18.6482 24.5091 12.6084Z" fill="white"/>
</g>
<defs>
<clipPath id="clip0_2367_13261">
<rect width="24.2017" height="24.2017" fill="white" transform="translate(0.307617 0.508057)"/>
</clipPath>
</defs>
</svg>
