<svg width="31" height="30" viewBox="0 0 31 30" fill="none" xmlns="http://www.w3.org/2000/svg">
<path d="M3.76221 16.2197H26.335V13.7116H3.76221V16.2197ZM15.0486 24.9357C9.50132 24.9357 5.01625 20.4654 5.01625 14.9656H2.50817C2.50817 21.8636 8.12926 27.4437 15.0486 27.4437V24.9357ZM5.01625 14.9656C5.01625 9.46589 9.50132 4.99562 15.0486 4.99562V2.48754C8.12926 2.48754 2.50817 8.06763 2.50817 14.9656H5.01625ZM15.0486 4.99562C20.5958 4.99562 25.0809 9.46589 25.0809 14.9656H27.589C27.589 8.06763 21.9679 2.48754 15.0486 2.48754V4.99562ZM25.0809 14.9656C25.0809 20.4654 20.5958 24.9357 15.0486 24.9357V27.4437C21.9679 27.4437 27.589 21.8636 27.589 14.9656H25.0809ZM15.0486 24.9357C14.7616 24.9357 14.3954 24.8107 13.9581 24.3968C13.5141 23.9767 13.0574 23.3099 12.6465 22.3906C11.8261 20.5548 11.2865 17.9308 11.2865 14.9656H8.77838C8.77838 18.1994 9.36164 21.1874 10.3567 23.4139C10.8536 24.5257 11.4777 25.5027 12.2341 26.2185C12.997 26.9405 13.9503 27.4437 15.0486 27.4437V24.9357ZM11.2865 14.9656C11.2865 12.0005 11.8261 9.37646 12.6465 7.5407C13.0574 6.62133 13.5141 5.95457 13.9581 5.53443C14.3954 5.12054 14.7616 4.99562 15.0486 4.99562V2.48754C13.9503 2.48754 12.997 2.99077 12.2341 3.71281C11.4777 4.42861 10.8536 5.40557 10.3567 6.51736C9.36164 8.7439 8.77838 11.7319 8.77838 14.9656H11.2865ZM15.0486 4.99562C15.3355 4.99562 15.7018 5.12054 16.1391 5.53443C16.583 5.95457 17.0398 6.62133 17.4506 7.5407C18.2711 9.37646 18.8107 12.0005 18.8107 14.9656H21.3188C21.3188 11.7319 20.7355 8.7439 19.7405 6.51736C19.2436 5.40557 18.6194 4.42861 17.8631 3.71281C17.1002 2.99077 16.1468 2.48754 15.0486 2.48754V4.99562ZM18.8107 14.9656C18.8107 17.9308 18.2711 20.5548 17.4506 22.3906C17.0398 23.3099 16.583 23.9767 16.1391 24.3968C15.7018 24.8107 15.3355 24.9357 15.0486 24.9357V27.4437C16.1468 27.4437 17.1002 26.9405 17.8631 26.2185C18.6194 25.5027 19.2436 24.5257 19.7405 23.4139C20.7355 21.1874 21.3188 18.1994 21.3188 14.9656H18.8107Z" fill="white"/>
</svg>
