<svg width="660" height="549" viewBox="0 0 660 549" fill="none" xmlns="http://www.w3.org/2000/svg">
<path d="M248.667 282.667C245.167 282.667 242.583 280.167 242.583 276.917C242.583 273.75 245.167 271.25 248.667 271.25C252 271.25 254.5 273.75 254.5 276.917C254.5 280.167 252 282.667 248.667 282.667ZM253.417 324.833C253.417 328.417 255.5 329.167 258.583 329.833V331H239.75V329.833C242.833 329.167 244.917 328.417 244.917 324.833V297.25C244.917 294.417 243.5 293.083 240.5 292.75H238.75V291.583L252.25 287.75H253.417V324.833ZM304.575 324.833C304.575 328.417 306.658 329.167 309.742 329.833V331H290.908V329.833C293.992 329.167 296.075 328.417 296.075 324.833V301.417C296.075 296.5 293.408 293.5 288.908 293.5C284.992 293.5 281.908 295.167 278.075 299.417V324.833C278.075 328.417 280.158 329.167 283.242 329.833V331H264.408V329.833C267.492 329.167 269.575 328.417 269.575 324.833V297.25C269.575 294.5 268.158 293.083 265.158 292.833L263.408 292.75V291.583L276.908 287.833H278.075V297.333C282.492 291.667 286.825 287.833 292.742 287.833C300.408 287.833 304.575 292.75 304.575 300.917V324.833ZM331.169 332.25L314.919 294.917C313.419 291.667 312.002 290.417 309.169 290.25V289.083H328.835V290.25C324.835 290.333 323.085 292.083 324.335 294.917L335.085 320.833L345.752 294.917C346.919 292.167 345.419 290.417 341.752 290.25V289.083H353.919V290.25C351.169 290.417 349.752 291.667 348.335 294.917L332.335 332.25H331.169ZM390.403 318.5L391.403 318.917C389.57 326.25 383.403 332.167 374.153 332.167C361.736 332.167 354.57 322.583 354.57 310.917C354.57 297.167 362.653 287.833 374.82 287.833C385.653 287.833 391.32 295.333 391.32 306.167H363.07C362.986 306.583 362.986 306.917 362.986 307.333C362.57 318.667 368.986 325.417 378.403 325.417C384.153 325.417 388.07 322.25 390.403 318.5ZM373.57 290.167C367.903 290.167 364.236 296.083 363.236 303.833H382.486C382.32 297.25 379.236 290.167 373.57 290.167ZM415.354 332.167C407.271 332.167 400.437 328.167 397.937 322.667L404.771 319.25C406.104 325.583 410.687 329.833 415.937 329.833C420.854 329.833 424.354 327 424.354 322.667C424.187 310.167 399.687 315.833 399.521 300.333C399.437 293 405.521 287.833 414.854 287.833C422.021 287.833 428.354 290.917 430.354 296.167L424.021 299.25C422.354 293.833 418.437 290.167 414.021 290.167C409.437 290.167 406.271 292.833 406.271 296.75C406.271 307.833 430.937 302.833 431.271 318.833C431.354 326.75 424.604 332.167 415.354 332.167ZM461.736 325.75L462.403 326.25C461.07 328.667 457.986 332.25 451.903 332.25C445.486 332.25 441.403 328 441.403 320.667V291.417H436.82V290.25L448.736 279.167H449.903V289.083H462.153V291.417H449.903V320.333C449.903 324.833 452.153 327.917 456.403 327.917C459.153 327.917 460.57 326.75 461.736 325.75ZM476.206 282.667C472.706 282.667 470.122 280.167 470.122 276.917C470.122 273.75 472.706 271.25 476.206 271.25C479.539 271.25 482.039 273.75 482.039 276.917C482.039 280.167 479.539 282.667 476.206 282.667ZM480.956 324.833C480.956 328.417 483.039 329.167 486.122 329.833V331H467.289V329.833C470.372 329.167 472.456 328.417 472.456 324.833V297.25C472.456 294.417 471.039 293.083 468.039 292.75H466.289V291.583L479.789 287.75H480.956V324.833ZM532.114 324.833C532.114 328.417 534.197 329.167 537.281 329.833V331H518.447V329.833C521.531 329.167 523.614 328.417 523.614 324.833V301.417C523.614 296.5 520.947 293.5 516.447 293.5C512.531 293.5 509.447 295.167 505.614 299.417V324.833C505.614 328.417 507.697 329.167 510.781 329.833V331H491.947V329.833C495.031 329.167 497.114 328.417 497.114 324.833V297.25C497.114 294.5 495.697 293.083 492.697 292.833L490.947 292.75V291.583L504.447 287.833H505.614V297.333C510.031 291.667 514.364 287.833 520.281 287.833C527.947 287.833 532.114 292.75 532.114 300.917V324.833ZM567.426 324.583C575.26 325.167 580.593 328.417 580.593 335.167C580.593 343.333 571.093 348.667 558.01 348.667C546.676 348.667 539.426 344.583 539.426 338.917C539.426 333.417 543.676 330.417 547.926 329.333C544.76 327.75 543.426 325.25 543.426 322.833C543.426 319.583 545.593 316.333 549.426 314.333C545.176 311.917 542.176 307.917 542.176 302.417C542.176 294.083 549.01 287.833 559.51 287.833C562.26 287.833 564.76 288.25 567.01 289.083H580.093V291.417H571.343C574.76 294 576.843 297.833 576.843 302.417C576.843 310.583 569.926 316.833 559.51 316.833C556.343 316.833 553.176 316.167 550.426 314.833C549.093 316.083 548.176 317.75 548.176 319.25C548.176 321 550.26 323.417 554.176 323.667L567.426 324.583ZM558.926 290.25C554.26 290.25 551.01 294.667 551.01 301C551.01 308.917 554.76 314.417 560.093 314.417C564.76 314.417 568.01 310.083 568.01 303.667C568.01 295.917 564.343 290.25 558.926 290.25ZM560.843 346.5C568.76 346.5 575.093 343.25 575.093 338.5C575.093 335.25 572.843 332.583 566.093 331.917L554.176 330.917C552.343 330.75 550.76 330.417 549.426 330C548.176 331.25 546.343 333.167 546.343 336C546.343 342.583 552.676 346.5 560.843 346.5ZM252.833 416.833C252.833 420.417 255 421.167 258 421.833V423H239.167V421.833C242.25 421.167 244.417 420.417 244.417 416.833V373.417C244.417 370.583 243 369.25 240 369L238.167 368.917V367.75L251.667 363.917H252.833V416.833ZM282.932 424.167C271.182 424.167 263.098 415.5 263.098 402.917C263.098 389.25 271.515 379.833 283.682 379.833C295.432 379.833 303.515 388.5 303.515 401.167C303.515 414.833 295.098 424.167 282.932 424.167ZM284.432 421.833C290.848 421.833 294.682 414.833 294.682 404.75C294.682 394.417 290.848 382.167 282.265 382.167C275.848 382.167 272.015 389.167 272.015 399.167C272.015 409.667 275.765 421.833 284.432 421.833ZM330.214 424.167C318.464 424.167 310.38 415.5 310.38 402.917C310.38 389.25 318.797 379.833 330.964 379.833C342.714 379.833 350.797 388.5 350.797 401.167C350.797 414.833 342.38 424.167 330.214 424.167ZM331.714 421.833C338.13 421.833 341.964 414.833 341.964 404.75C341.964 394.417 338.13 382.167 329.547 382.167C323.13 382.167 319.297 389.167 319.297 399.167C319.297 409.667 323.047 421.833 331.714 421.833ZM395.585 417.417C397.085 420 398.918 421.5 403.501 421.833V423H388.585C388.418 421.5 387.585 420 386.668 418.417L375.918 400.167L370.835 404.833V416.833C370.835 420.417 373.001 421.167 376.001 421.833V423H357.168V421.833C360.251 421.167 362.418 420.417 362.418 416.833V373.417C362.418 370.583 361.001 369.25 358.001 369L356.168 368.917V367.75L369.668 363.917H370.835V401.583L387.335 386.583C390.335 383.833 389.585 382.25 384.918 382.25V381.083H400.335V382.25C396.668 382.25 394.501 383.25 389.168 388.083L382.251 394.417L395.585 417.417ZM423.574 424.167C415.49 424.167 408.657 420.167 406.157 414.667L412.99 411.25C414.324 417.583 418.907 421.833 424.157 421.833C429.074 421.833 432.574 419 432.574 414.667C432.407 402.167 407.907 407.833 407.74 392.333C407.657 385 413.74 379.833 423.074 379.833C430.24 379.833 436.574 382.917 438.574 388.167L432.24 391.25C430.574 385.833 426.657 382.167 422.24 382.167C417.657 382.167 414.49 384.833 414.49 388.75C414.49 399.833 439.157 394.833 439.49 410.833C439.574 418.75 432.824 424.167 423.574 424.167ZM478.745 416.833C478.745 420.417 480.911 421.167 483.911 421.833V423H465.078V421.833C468.161 421.167 470.328 420.417 470.328 416.833V373.417C470.328 370.583 468.911 369.25 465.911 369L464.078 368.917V367.75L477.578 363.917H478.745V416.833ZM498.829 374.667C495.329 374.667 492.746 372.167 492.746 368.917C492.746 365.75 495.329 363.25 498.829 363.25C502.163 363.25 504.663 365.75 504.663 368.917C504.663 372.167 502.163 374.667 498.829 374.667ZM503.579 416.833C503.579 420.417 505.663 421.167 508.746 421.833V423H489.913V421.833C492.996 421.167 495.079 420.417 495.079 416.833V389.25C495.079 386.417 493.663 385.083 490.663 384.75H488.913V383.583L502.413 379.75H503.579V416.833ZM552.404 417.417C553.904 420 555.738 421.5 560.321 421.833V423H545.404C545.238 421.5 544.404 420 543.488 418.417L532.738 400.167L527.654 404.833V416.833C527.654 420.417 529.821 421.167 532.821 421.833V423H513.988V421.833C517.071 421.167 519.238 420.417 519.238 416.833V373.417C519.238 370.583 517.821 369.25 514.821 369L512.988 368.917V367.75L526.488 363.917H527.654V401.583L544.154 386.583C547.154 383.833 546.404 382.25 541.738 382.25V381.083H557.154V382.25C553.488 382.25 551.321 383.25 545.988 388.083L539.071 394.417L552.404 417.417ZM597.027 410.5L598.027 410.917C596.194 418.25 590.027 424.167 580.777 424.167C568.361 424.167 561.194 414.583 561.194 402.917C561.194 389.167 569.277 379.833 581.444 379.833C592.277 379.833 597.944 387.333 597.944 398.167H569.694C569.611 398.583 569.611 398.917 569.611 399.333C569.194 410.667 575.611 417.417 585.027 417.417C590.777 417.417 594.694 414.25 597.027 410.5ZM580.194 382.167C574.527 382.167 570.861 388.083 569.861 395.833H589.111C588.944 389.25 585.861 382.167 580.194 382.167ZM263.25 509.75L263.917 510.25C262.583 512.667 259.5 516.25 253.417 516.25C247 516.25 242.917 512 242.917 504.667V475.417H238.333V474.25L250.25 463.167H251.417V473.083H263.667V475.417H251.417V504.333C251.417 508.833 253.667 511.917 257.917 511.917C260.667 511.917 262.083 510.75 263.25 509.75ZM308.464 508.833C308.464 512.417 310.547 513.167 313.63 513.833V515H294.797V513.833C297.88 513.167 299.964 512.417 299.964 508.833V485.417C299.964 480.5 297.297 477.5 292.797 477.5C289.047 477.5 285.88 479.167 282.13 483.25V508.833C282.13 512.417 284.297 513.167 287.297 513.833V515H268.464V513.833C271.547 513.167 273.714 512.417 273.714 508.833V465.417C273.714 462.583 272.297 461.25 269.297 461L267.464 460.917V459.75L280.964 455.917H282.13V481.083C286.464 475.583 290.797 471.833 296.63 471.833C304.297 471.833 308.464 476.75 308.464 484.917V508.833ZM327.524 466.667C324.024 466.667 321.441 464.167 321.441 460.917C321.441 457.75 324.024 455.25 327.524 455.25C330.857 455.25 333.357 457.75 333.357 460.917C333.357 464.167 330.857 466.667 327.524 466.667ZM332.274 508.833C332.274 512.417 334.357 513.167 337.441 513.833V515H318.607V513.833C321.691 513.167 323.774 512.417 323.774 508.833V481.25C323.774 478.417 322.357 477.083 319.357 476.75H317.607V475.583L331.107 471.75H332.274V508.833ZM359.365 516.167C351.281 516.167 344.448 512.167 341.948 506.667L348.781 503.25C350.115 509.583 354.698 513.833 359.948 513.833C364.865 513.833 368.365 511 368.365 506.667C368.198 494.167 343.698 499.833 343.531 484.333C343.448 477 349.531 471.833 358.865 471.833C366.031 471.833 372.365 474.917 374.365 480.167L368.031 483.25C366.365 477.833 362.448 474.167 358.031 474.167C353.448 474.167 350.281 476.833 350.281 480.75C350.281 491.833 374.948 486.833 375.281 502.833C375.365 510.75 368.615 516.167 359.365 516.167Z" fill="#280146"/>
<path d="M38.0582 111.642C22.3436 111.642 9.32636 105.309 5.22182 92.7609L20.7018 88.6564C23.1645 100.384 30.9046 108.358 39.9346 108.358C47.5573 108.358 52.7173 103.198 52.7173 95.5755C52.7173 73.1764 7.80182 81.5027 7.80182 53.1227C7.80182 39.1673 19.1773 29.9027 37.7064 29.9027C52.2482 29.9027 65.2655 36.1182 69.37 48.1973L54.1246 52.4191C51.6618 40.5745 44.5082 33.1864 35.83 33.1864C28.6764 33.1864 23.7509 37.8773 23.7509 44.7964C23.7509 65.6709 69.7218 58.2827 69.7218 87.3664C69.7218 102.612 57.1736 111.642 38.0582 111.642ZM143.29 103.198L145.049 103.315V104.957L121.947 111.759H120.305L119.367 99.4455V98.8591C113.738 105.895 107.639 111.759 99.313 111.759C87.5858 111.759 81.9567 104.019 81.9567 92.1745V63.56C81.9567 59.9245 79.8458 57.6964 75.5067 57.11L73.7476 56.8754V55.2336L97.7885 48.5491H99.4303V91.0018C99.4303 97.1 102.597 100.853 107.757 100.853C112.096 100.853 115.497 99.3282 119.367 95.4582V63.56C119.367 59.9245 117.256 57.6964 112.917 57.11L111.158 56.8754V55.2336L135.198 48.5491H136.84V96.7482C136.84 100.735 139.303 102.612 143.29 103.198ZM191.135 48.5491C207.436 48.5491 216.114 62.5045 216.114 78.1018C216.114 99.2109 203.683 111.759 189.258 111.759C182.222 111.759 177.297 109.179 174.599 105.075V124.19C174.599 128.881 176.358 130.288 184.685 131.461V133.103H149.855V131.461C155.484 130.288 157.243 128.881 157.243 124.19V63.56C157.243 59.9245 155.015 57.6964 150.793 57.11L149.034 56.9927V55.3509L172.958 48.5491H174.599V60.6282C177.648 53.1227 184.098 48.5491 191.135 48.5491ZM185.74 106.834C192.659 106.834 198.054 96.2791 198.054 82.5582C198.054 70.1273 194.067 57.9309 184.568 57.9309C179.994 57.9309 176.007 60.6282 174.599 64.85V87.9527C174.599 100.032 178 106.834 185.74 106.834ZM262.186 99.3282C269.457 99.3282 275.203 95.3409 278.369 90.1809L279.777 90.65C277.666 101.908 269.105 111.642 253.742 111.642C234.157 111.642 224.072 97.2173 224.072 81.5027C224.072 61.8009 236.151 48.6664 254.446 48.6664C271.802 48.6664 279.659 58.8691 279.777 74.5836H240.959V74.9354C240.373 90.7673 249.286 99.3282 262.186 99.3282ZM252.569 51.95C245.533 51.95 242.132 61.0973 241.194 71.3H262.537C262.303 63.2082 259.371 51.95 252.569 51.95ZM330.435 48.5491C331.959 48.5491 333.718 48.7836 335.595 49.6045L334.539 65.3191C332.311 63.56 329.379 62.8564 326.33 62.8564C320.818 62.8564 315.189 65.6709 312.257 70.8309V101.087C312.257 105.778 314.016 107.185 322.343 108.358V110H287.513V108.358C293.142 107.185 294.901 105.778 294.901 101.087V63.56C294.901 59.9245 292.673 57.6964 288.451 57.11L286.692 56.9927V55.3509L310.616 48.5491H312.257V66.7264C316.01 55.5854 322.577 48.5491 330.435 48.5491ZM339.147 78.9227V72.9418H368.465V78.9227H339.147ZM43.1009 228.328C50.3718 228.328 56.1182 224.341 59.2846 219.181L60.6918 219.65C58.5809 230.908 50.02 240.642 34.6573 240.642C15.0727 240.642 4.98727 226.217 4.98727 210.503C4.98727 190.801 17.0664 177.666 35.3609 177.666C52.7173 177.666 60.5746 187.869 60.6918 203.584H21.8745V203.935C21.2882 219.767 30.2009 228.328 43.1009 228.328ZM33.4845 180.95C26.4482 180.95 23.0473 190.097 22.1091 200.3H43.4527C43.2182 192.208 40.2864 180.95 33.4845 180.95ZM167.289 230.087C167.289 234.778 168.931 236.185 173.387 237.475V239H143.835V237.475C148.291 236.185 149.933 234.778 149.933 230.087V198.306C149.933 192.208 146.649 188.573 141.489 188.573C137.033 188.573 133.749 190.215 129.762 194.202C129.879 195.14 129.879 196.195 129.879 197.251V230.087C129.879 234.778 131.404 236.185 135.86 237.475V239H106.425V237.475C110.881 236.185 112.405 234.778 112.405 230.087V198.306C112.405 192.208 109.239 188.573 104.079 188.573C99.9745 188.573 96.6909 189.98 93.1727 193.264V230.087C93.1727 234.778 94.8145 236.185 99.2709 237.475V239H69.7182V237.475C74.1745 236.185 75.8163 234.778 75.8163 230.087V192.56C75.8163 188.925 73.5882 186.696 69.3663 186.11L67.6072 185.875V184.234L91.5309 177.549H93.1727V189.628C98.5673 183.061 104.548 177.666 112.523 177.666C122.139 177.666 127.651 182.826 129.293 191.27C135.039 183.882 141.372 177.666 149.933 177.666C161.66 177.666 167.289 185.289 167.289 197.251V230.087ZM218.048 177.549C234.349 177.549 243.027 191.505 243.027 207.102C243.027 228.211 230.596 240.759 216.172 240.759C209.135 240.759 204.21 238.179 201.513 234.075V253.19C201.513 257.881 203.272 259.288 211.598 260.461V262.103H176.768V260.461C182.397 259.288 184.156 257.881 184.156 253.19V192.56C184.156 188.925 181.928 186.696 177.706 186.11L175.947 185.993V184.351L199.871 177.549H201.513V189.628C204.562 182.123 211.012 177.549 218.048 177.549ZM212.653 235.834C219.573 235.834 224.967 225.279 224.967 211.558C224.967 199.127 220.98 186.931 211.481 186.931C206.907 186.931 202.92 189.628 201.513 193.85V216.953C201.513 229.032 204.913 235.834 212.653 235.834ZM281.476 240.759C263.416 240.759 250.985 228.328 250.985 210.503C250.985 191.035 263.885 177.549 282.297 177.549C300.357 177.549 312.788 189.98 312.788 207.923C312.788 227.39 300.005 240.759 281.476 240.759ZM283.822 237.475C291.092 237.475 294.845 228.211 294.845 214.725C294.845 195.961 288.982 180.833 280.069 180.833C272.798 180.833 268.928 190.332 268.928 203.584C268.928 222.582 275.026 237.475 283.822 237.475ZM397.637 179.308H413.352V180.95C409.834 181.419 408.192 182.826 405.964 187.986L383.213 240.759H381.571L363.277 199.01L344.982 240.759H343.457L320.12 187.986C318.244 183.882 316.602 181.419 312.38 180.95V179.308H344.982V180.95C339.822 181.302 337.359 183.647 339.236 187.986L351.784 217.656L361.4 194.905L358.351 187.986C356.475 183.765 354.95 181.419 350.494 180.95V179.308H383.33V180.95C377.936 181.302 375.59 183.647 377.467 187.986L389.897 217.656L402.328 187.986C404.087 183.999 402.446 181.302 397.637 180.95V179.308ZM451.036 228.328C458.307 228.328 464.053 224.341 467.22 219.181L468.627 219.65C466.516 230.908 457.955 240.642 442.592 240.642C423.008 240.642 412.922 226.217 412.922 210.503C412.922 190.801 425.001 177.666 443.296 177.666C460.652 177.666 468.51 187.869 468.627 203.584H429.81V203.935C429.223 219.767 438.136 228.328 451.036 228.328ZM441.42 180.95C434.383 180.95 430.982 190.097 430.044 200.3H451.388C451.153 192.208 448.221 180.95 441.42 180.95ZM519.285 177.549C520.81 177.549 522.569 177.784 524.445 178.605L523.39 194.319C521.161 192.56 518.23 191.856 515.18 191.856C509.669 191.856 504.04 194.671 501.108 199.831V230.087C501.108 234.778 502.867 236.185 511.193 237.358V239H476.363V237.358C481.992 236.185 483.751 234.778 483.751 230.087V192.56C483.751 188.925 481.523 186.696 477.301 186.11L475.542 185.993V184.351L499.466 177.549H501.108V195.726C504.86 184.585 511.428 177.549 519.285 177.549ZM566.934 228.328C574.205 228.328 579.952 224.341 583.118 219.181L584.525 219.65C582.414 230.908 573.854 240.642 558.491 240.642C538.906 240.642 528.821 226.217 528.821 210.503C528.821 190.801 540.9 177.666 559.194 177.666C576.551 177.666 584.408 187.869 584.525 203.584H545.708V203.935C545.122 219.767 554.034 228.328 566.934 228.328ZM557.318 180.95C550.282 180.95 546.881 190.097 545.943 200.3H567.286C567.052 192.208 564.12 180.95 557.318 180.95ZM617.933 240.759C601.632 240.759 592.954 226.804 592.954 211.206C592.954 190.097 605.502 177.549 619.81 177.549C626.846 177.549 631.654 180.129 634.469 184.116V170.161C634.469 166.174 631.889 164.297 628.019 163.711L626.26 163.476V161.835L650.183 155.15H651.825V225.748C651.825 229.735 654.405 231.612 658.393 232.198L660.152 232.315V233.957L636.932 240.759H635.29L634.586 228.328C631.654 236.068 625.087 240.759 617.933 240.759ZM624.618 231.377C629.074 231.377 633.062 228.68 634.469 224.458V201.355C634.469 189.276 631.185 182.475 623.328 182.475C616.409 182.475 611.132 193.029 611.132 206.75C611.132 219.181 615.002 231.377 624.618 231.377Z" fill="#280146"/>
<path fill-rule="evenodd" clip-rule="evenodd" d="M327.42 322.669C349.603 284.245 274.142 199.147 158.872 132.596C43.6025 66.0446 -67.8257 43.2426 -90.0094 81.6659C-110.11 116.481 -50.0449 189.615 47.1617 252.551C-60.9458 205.734 -147.056 190.502 -163.482 219.827C-185.163 258.536 -77.2199 360.221 77.616 446.946C232.452 533.672 375.547 572.597 397.229 533.888C417.94 496.911 320.37 402.47 176.632 318.496C251.394 346.393 311.729 349.845 327.42 322.669Z" fill="#0ECDC2"/>
<path fill-rule="evenodd" clip-rule="evenodd" d="M327.42 322.669C349.603 284.245 274.142 199.147 158.872 132.596C43.6025 66.0446 -67.8257 43.2426 -90.0094 81.6659C-110.11 116.481 -50.0449 189.615 47.1617 252.551C-60.9458 205.734 -147.056 190.502 -163.482 219.827C-185.163 258.536 -77.2199 360.221 77.616 446.946C232.452 533.672 375.547 572.597 397.229 533.888C417.94 496.911 320.37 402.47 176.632 318.496C251.394 346.393 311.729 349.845 327.42 322.669Z" fill="url(#paint0_linear_2356_13258)"/>
<mask id="mask0_2356_13258" style="mask-type:alpha" maskUnits="userSpaceOnUse" x="-167" y="62" width="568" height="487">
<path fill-rule="evenodd" clip-rule="evenodd" d="M327.421 322.667C349.604 284.243 274.143 199.145 158.873 132.594C43.6033 66.0427 -67.8249 43.2406 -90.0086 81.6639C-110.109 116.478 -50.0443 189.613 47.1617 252.549C-60.9453 205.732 -147.055 190.5 -163.481 219.825C-185.162 258.534 -77.2189 360.219 77.617 446.944C232.453 533.67 375.548 572.595 397.23 533.886C417.941 496.909 320.371 402.468 176.633 318.495C251.396 346.391 311.73 349.843 327.421 322.667Z" fill="#0ECDC2"/>
<path fill-rule="evenodd" clip-rule="evenodd" d="M327.421 322.667C349.604 284.243 274.143 199.145 158.873 132.594C43.6033 66.0427 -67.8249 43.2406 -90.0086 81.6639C-110.109 116.478 -50.0443 189.613 47.1617 252.549C-60.9453 205.732 -147.055 190.5 -163.481 219.825C-185.162 258.534 -77.2189 360.219 77.617 446.944C232.453 533.67 375.548 572.595 397.23 533.886C417.941 496.909 320.371 402.468 176.633 318.495C251.396 346.391 311.73 349.843 327.421 322.667Z" fill="url(#paint1_radial_2356_13258)"/>
</mask>
<g mask="url(#mask0_2356_13258)">
<path d="M248.667 282.669C245.167 282.669 242.583 280.169 242.583 276.919C242.583 273.752 245.167 271.252 248.667 271.252C252 271.252 254.5 273.752 254.5 276.919C254.5 280.169 252 282.669 248.667 282.669ZM253.417 324.835C253.417 328.419 255.5 329.169 258.583 329.835V331.002H239.75V329.835C242.833 329.169 244.917 328.419 244.917 324.835V297.252C244.917 294.419 243.5 293.085 240.5 292.752H238.75V291.585L252.25 287.752H253.417V324.835ZM304.575 324.835C304.575 328.419 306.658 329.169 309.742 329.835V331.002H290.908V329.835C293.992 329.169 296.075 328.419 296.075 324.835V301.419C296.075 296.502 293.408 293.502 288.908 293.502C284.992 293.502 281.908 295.169 278.075 299.419V324.835C278.075 328.419 280.158 329.169 283.242 329.835V331.002H264.408V329.835C267.492 329.169 269.575 328.419 269.575 324.835V297.252C269.575 294.502 268.158 293.085 265.158 292.835L263.408 292.752V291.585L276.908 287.835H278.075V297.335C282.492 291.669 286.825 287.835 292.742 287.835C300.408 287.835 304.575 292.752 304.575 300.919V324.835ZM331.169 332.252L314.919 294.919C313.419 291.669 312.002 290.419 309.169 290.252V289.085H328.835V290.252C324.835 290.335 323.085 292.085 324.335 294.919L335.085 320.835L345.752 294.919C346.919 292.169 345.419 290.419 341.752 290.252V289.085H353.919V290.252C351.169 290.419 349.752 291.669 348.335 294.919L332.335 332.252H331.169ZM390.403 318.502L391.403 318.919C389.57 326.252 383.403 332.169 374.153 332.169C361.736 332.169 354.57 322.585 354.57 310.919C354.57 297.169 362.653 287.835 374.82 287.835C385.653 287.835 391.32 295.335 391.32 306.169H363.07C362.986 306.585 362.986 306.919 362.986 307.335C362.57 318.669 368.986 325.419 378.403 325.419C384.153 325.419 388.07 322.252 390.403 318.502ZM373.57 290.169C367.903 290.169 364.236 296.085 363.236 303.835H382.486C382.32 297.252 379.236 290.169 373.57 290.169ZM415.354 332.169C407.271 332.169 400.437 328.169 397.937 322.669L404.771 319.252C406.104 325.585 410.687 329.835 415.937 329.835C420.854 329.835 424.354 327.002 424.354 322.669C424.187 310.169 399.687 315.835 399.521 300.335C399.437 293.002 405.521 287.835 414.854 287.835C422.021 287.835 428.354 290.919 430.354 296.169L424.021 299.252C422.354 293.835 418.437 290.169 414.021 290.169C409.437 290.169 406.271 292.835 406.271 296.752C406.271 307.835 430.937 302.835 431.271 318.835C431.354 326.752 424.604 332.169 415.354 332.169ZM461.736 325.752L462.403 326.252C461.07 328.669 457.986 332.252 451.903 332.252C445.486 332.252 441.403 328.002 441.403 320.669V291.419H436.82V290.252L448.736 279.169H449.903V289.085H462.153V291.419H449.903V320.335C449.903 324.835 452.153 327.919 456.403 327.919C459.153 327.919 460.57 326.752 461.736 325.752ZM476.206 282.669C472.706 282.669 470.122 280.169 470.122 276.919C470.122 273.752 472.706 271.252 476.206 271.252C479.539 271.252 482.039 273.752 482.039 276.919C482.039 280.169 479.539 282.669 476.206 282.669ZM480.956 324.835C480.956 328.419 483.039 329.169 486.122 329.835V331.002H467.289V329.835C470.372 329.169 472.456 328.419 472.456 324.835V297.252C472.456 294.419 471.039 293.085 468.039 292.752H466.289V291.585L479.789 287.752H480.956V324.835ZM532.114 324.835C532.114 328.419 534.197 329.169 537.281 329.835V331.002H518.447V329.835C521.531 329.169 523.614 328.419 523.614 324.835V301.419C523.614 296.502 520.947 293.502 516.447 293.502C512.531 293.502 509.447 295.169 505.614 299.419V324.835C505.614 328.419 507.697 329.169 510.781 329.835V331.002H491.947V329.835C495.031 329.169 497.114 328.419 497.114 324.835V297.252C497.114 294.502 495.697 293.085 492.697 292.835L490.947 292.752V291.585L504.447 287.835H505.614V297.335C510.031 291.669 514.364 287.835 520.281 287.835C527.947 287.835 532.114 292.752 532.114 300.919V324.835ZM567.426 324.585C575.26 325.169 580.593 328.419 580.593 335.169C580.593 343.335 571.093 348.669 558.01 348.669C546.676 348.669 539.426 344.585 539.426 338.919C539.426 333.419 543.676 330.419 547.926 329.335C544.76 327.752 543.426 325.252 543.426 322.835C543.426 319.585 545.593 316.335 549.426 314.335C545.176 311.919 542.176 307.919 542.176 302.419C542.176 294.085 549.01 287.835 559.51 287.835C562.26 287.835 564.76 288.252 567.01 289.085H580.093V291.419H571.343C574.76 294.002 576.843 297.835 576.843 302.419C576.843 310.585 569.926 316.835 559.51 316.835C556.343 316.835 553.176 316.169 550.426 314.835C549.093 316.085 548.176 317.752 548.176 319.252C548.176 321.002 550.26 323.419 554.176 323.669L567.426 324.585ZM558.926 290.252C554.26 290.252 551.01 294.669 551.01 301.002C551.01 308.919 554.76 314.419 560.093 314.419C564.76 314.419 568.01 310.085 568.01 303.669C568.01 295.919 564.343 290.252 558.926 290.252ZM560.843 346.502C568.76 346.502 575.093 343.252 575.093 338.502C575.093 335.252 572.843 332.585 566.093 331.919L554.176 330.919C552.343 330.752 550.76 330.419 549.426 330.002C548.176 331.252 546.343 333.169 546.343 336.002C546.343 342.585 552.676 346.502 560.843 346.502ZM252.833 416.835C252.833 420.419 255 421.169 258 421.835V423.002H239.167V421.835C242.25 421.169 244.417 420.419 244.417 416.835V373.419C244.417 370.585 243 369.252 240 369.002L238.167 368.919V367.752L251.667 363.919H252.833V416.835ZM282.932 424.169C271.182 424.169 263.098 415.502 263.098 402.919C263.098 389.252 271.515 379.835 283.682 379.835C295.432 379.835 303.515 388.502 303.515 401.169C303.515 414.835 295.098 424.169 282.932 424.169ZM284.432 421.835C290.848 421.835 294.682 414.835 294.682 404.752C294.682 394.419 290.848 382.169 282.265 382.169C275.848 382.169 272.015 389.169 272.015 399.169C272.015 409.669 275.765 421.835 284.432 421.835ZM330.214 424.169C318.464 424.169 310.38 415.502 310.38 402.919C310.38 389.252 318.797 379.835 330.964 379.835C342.714 379.835 350.797 388.502 350.797 401.169C350.797 414.835 342.38 424.169 330.214 424.169ZM331.714 421.835C338.13 421.835 341.964 414.835 341.964 404.752C341.964 394.419 338.13 382.169 329.547 382.169C323.13 382.169 319.297 389.169 319.297 399.169C319.297 409.669 323.047 421.835 331.714 421.835ZM395.585 417.419C397.085 420.002 398.918 421.502 403.501 421.835V423.002H388.585C388.418 421.502 387.585 420.002 386.668 418.419L375.918 400.169L370.835 404.835V416.835C370.835 420.419 373.001 421.169 376.001 421.835V423.002H357.168V421.835C360.251 421.169 362.418 420.419 362.418 416.835V373.419C362.418 370.585 361.001 369.252 358.001 369.002L356.168 368.919V367.752L369.668 363.919H370.835V401.585L387.335 386.585C390.335 383.835 389.585 382.252 384.918 382.252V381.085H400.335V382.252C396.668 382.252 394.501 383.252 389.168 388.085L382.251 394.419L395.585 417.419ZM423.574 424.169C415.49 424.169 408.657 420.169 406.157 414.669L412.99 411.252C414.324 417.585 418.907 421.835 424.157 421.835C429.074 421.835 432.574 419.002 432.574 414.669C432.407 402.169 407.907 407.835 407.74 392.335C407.657 385.002 413.74 379.835 423.074 379.835C430.24 379.835 436.574 382.919 438.574 388.169L432.24 391.252C430.574 385.835 426.657 382.169 422.24 382.169C417.657 382.169 414.49 384.835 414.49 388.752C414.49 399.835 439.157 394.835 439.49 410.835C439.574 418.752 432.824 424.169 423.574 424.169ZM478.745 416.835C478.745 420.419 480.911 421.169 483.911 421.835V423.002H465.078V421.835C468.161 421.169 470.328 420.419 470.328 416.835V373.419C470.328 370.585 468.911 369.252 465.911 369.002L464.078 368.919V367.752L477.578 363.919H478.745V416.835ZM498.829 374.669C495.329 374.669 492.746 372.169 492.746 368.919C492.746 365.752 495.329 363.252 498.829 363.252C502.163 363.252 504.663 365.752 504.663 368.919C504.663 372.169 502.163 374.669 498.829 374.669ZM503.579 416.835C503.579 420.419 505.663 421.169 508.746 421.835V423.002H489.913V421.835C492.996 421.169 495.079 420.419 495.079 416.835V389.252C495.079 386.419 493.663 385.085 490.663 384.752H488.913V383.585L502.413 379.752H503.579V416.835ZM552.404 417.419C553.904 420.002 555.738 421.502 560.321 421.835V423.002H545.404C545.238 421.502 544.404 420.002 543.488 418.419L532.738 400.169L527.654 404.835V416.835C527.654 420.419 529.821 421.169 532.821 421.835V423.002H513.988V421.835C517.071 421.169 519.238 420.419 519.238 416.835V373.419C519.238 370.585 517.821 369.252 514.821 369.002L512.988 368.919V367.752L526.488 363.919H527.654V401.585L544.154 386.585C547.154 383.835 546.404 382.252 541.738 382.252V381.085H557.154V382.252C553.488 382.252 551.321 383.252 545.988 388.085L539.071 394.419L552.404 417.419ZM597.027 410.502L598.027 410.919C596.194 418.252 590.027 424.169 580.777 424.169C568.361 424.169 561.194 414.585 561.194 402.919C561.194 389.169 569.277 379.835 581.444 379.835C592.277 379.835 597.944 387.335 597.944 398.169H569.694C569.611 398.585 569.611 398.919 569.611 399.335C569.194 410.669 575.611 417.419 585.027 417.419C590.777 417.419 594.694 414.252 597.027 410.502ZM580.194 382.169C574.527 382.169 570.861 388.085 569.861 395.835H589.111C588.944 389.252 585.861 382.169 580.194 382.169ZM263.25 509.752L263.917 510.252C262.583 512.669 259.5 516.252 253.417 516.252C247 516.252 242.917 512.002 242.917 504.669V475.419H238.333V474.252L250.25 463.169H251.417V473.085H263.667V475.419H251.417V504.335C251.417 508.835 253.667 511.919 257.917 511.919C260.667 511.919 262.083 510.752 263.25 509.752ZM308.464 508.835C308.464 512.419 310.547 513.169 313.63 513.835V515.002H294.797V513.835C297.88 513.169 299.964 512.419 299.964 508.835V485.419C299.964 480.502 297.297 477.502 292.797 477.502C289.047 477.502 285.88 479.169 282.13 483.252V508.835C282.13 512.419 284.297 513.169 287.297 513.835V515.002H268.464V513.835C271.547 513.169 273.714 512.419 273.714 508.835V465.419C273.714 462.585 272.297 461.252 269.297 461.002L267.464 460.919V459.752L280.964 455.919H282.13V481.085C286.464 475.585 290.797 471.835 296.63 471.835C304.297 471.835 308.464 476.752 308.464 484.919V508.835ZM327.524 466.669C324.024 466.669 321.441 464.169 321.441 460.919C321.441 457.752 324.024 455.252 327.524 455.252C330.857 455.252 333.357 457.752 333.357 460.919C333.357 464.169 330.857 466.669 327.524 466.669ZM332.274 508.835C332.274 512.419 334.357 513.169 337.441 513.835V515.002H318.607V513.835C321.691 513.169 323.774 512.419 323.774 508.835V481.252C323.774 478.419 322.357 477.085 319.357 476.752H317.607V475.585L331.107 471.752H332.274V508.835ZM359.365 516.169C351.281 516.169 344.448 512.169 341.948 506.669L348.781 503.252C350.115 509.585 354.698 513.835 359.948 513.835C364.865 513.835 368.365 511.002 368.365 506.669C368.198 494.169 343.698 499.835 343.531 484.335C343.448 477.002 349.531 471.835 358.865 471.835C366.031 471.835 372.365 474.919 374.365 480.169L368.031 483.252C366.365 477.835 362.448 474.169 358.031 474.169C353.448 474.169 350.281 476.835 350.281 480.752C350.281 491.835 374.948 486.835 375.281 502.835C375.365 510.752 368.615 516.169 359.365 516.169Z" fill="#F4F2F6"/>
<path d="M38.0582 111.641C22.3436 111.641 9.32636 105.308 5.22182 92.7599L20.7018 88.6554C23.1645 100.383 30.9046 108.357 39.9346 108.357C47.5573 108.357 52.7173 103.197 52.7173 95.5745C52.7173 73.1754 7.80182 81.5017 7.80182 53.1217C7.80182 39.1663 19.1773 29.9017 37.7064 29.9017C52.2482 29.9017 65.2655 36.1172 69.37 48.1963L54.1246 52.4181C51.6618 40.5736 44.5082 33.1854 35.83 33.1854C28.6764 33.1854 23.7509 37.8763 23.7509 44.7954C23.7509 65.6699 69.7218 58.2817 69.7218 87.3654C69.7218 102.611 57.1736 111.641 38.0582 111.641ZM143.29 103.197L145.049 103.314V104.956L121.947 111.758H120.305L119.367 99.4445V98.8581C113.738 105.894 107.639 111.758 99.313 111.758C87.5858 111.758 81.9567 104.018 81.9567 92.1736V63.559C81.9567 59.9236 79.8458 57.6954 75.5067 57.109L73.7476 56.8745V55.2327L97.7885 48.5481H99.4303V91.0008C99.4303 97.099 102.597 100.852 107.757 100.852C112.096 100.852 115.497 99.3272 119.367 95.4572V63.559C119.367 59.9236 117.256 57.6954 112.917 57.109L111.158 56.8745V55.2327L135.198 48.5481H136.84V96.7472C136.84 100.734 139.303 102.611 143.29 103.197ZM191.135 48.5481C207.436 48.5481 216.114 62.5036 216.114 78.1008C216.114 99.2099 203.683 111.758 189.258 111.758C182.222 111.758 177.297 109.178 174.599 105.074V124.189C174.599 128.88 176.358 130.287 184.685 131.46V133.102H149.855V131.46C155.484 130.287 157.243 128.88 157.243 124.189V63.559C157.243 59.9236 155.015 57.6954 150.793 57.109L149.034 56.9917V55.3499L172.958 48.5481H174.599V60.6272C177.648 53.1217 184.098 48.5481 191.135 48.5481ZM185.74 106.833C192.659 106.833 198.054 96.2781 198.054 82.5572C198.054 70.1263 194.067 57.9299 184.568 57.9299C179.994 57.9299 176.007 60.6272 174.599 64.849V87.9517C174.599 100.031 178 106.833 185.74 106.833ZM262.186 99.3272C269.457 99.3272 275.203 95.3399 278.369 90.1799L279.777 90.649C277.666 101.907 269.105 111.641 253.742 111.641C234.157 111.641 224.072 97.2163 224.072 81.5017C224.072 61.7999 236.151 48.6654 254.446 48.6654C271.802 48.6654 279.659 58.8681 279.777 74.5827H240.959V74.9345C240.373 90.7663 249.286 99.3272 262.186 99.3272ZM252.569 51.949C245.533 51.949 242.132 61.0963 241.194 71.299H262.537C262.303 63.2072 259.371 51.949 252.569 51.949ZM330.435 48.5481C331.959 48.5481 333.718 48.7827 335.595 49.6036L334.539 65.3181C332.311 63.559 329.379 62.8554 326.33 62.8554C320.818 62.8554 315.189 65.6699 312.257 70.8299V101.086C312.257 105.777 314.016 107.184 322.343 108.357V109.999H287.513V108.357C293.142 107.184 294.901 105.777 294.901 101.086V63.559C294.901 59.9236 292.673 57.6954 288.451 57.109L286.692 56.9917V55.3499L310.616 48.5481H312.257V66.7254C316.01 55.5845 322.577 48.5481 330.435 48.5481ZM339.147 78.9217V72.9408H368.465V78.9217H339.147ZM43.1009 228.327C50.3718 228.327 56.1182 224.34 59.2846 219.18L60.6918 219.649C58.5809 230.907 50.02 240.641 34.6573 240.641C15.0727 240.641 4.98727 226.216 4.98727 210.502C4.98727 190.8 17.0664 177.665 35.3609 177.665C52.7173 177.665 60.5746 187.868 60.6918 203.583H21.8745V203.934C21.2882 219.766 30.2009 228.327 43.1009 228.327ZM33.4845 180.949C26.4482 180.949 23.0473 190.096 22.1091 200.299H43.4527C43.2182 192.207 40.2864 180.949 33.4845 180.949ZM167.289 230.086C167.289 234.777 168.931 236.184 173.387 237.474V238.999H143.835V237.474C148.291 236.184 149.933 234.777 149.933 230.086V198.305C149.933 192.207 146.649 188.572 141.489 188.572C137.033 188.572 133.749 190.214 129.762 194.201C129.879 195.139 129.879 196.194 129.879 197.25V230.086C129.879 234.777 131.404 236.184 135.86 237.474V238.999H106.425V237.474C110.881 236.184 112.405 234.777 112.405 230.086V198.305C112.405 192.207 109.239 188.572 104.079 188.572C99.9745 188.572 96.6909 189.979 93.1727 193.263V230.086C93.1727 234.777 94.8145 236.184 99.2709 237.474V238.999H69.7182V237.474C74.1745 236.184 75.8163 234.777 75.8163 230.086V192.559C75.8163 188.924 73.5882 186.695 69.3663 186.109L67.6072 185.874V184.233L91.5309 177.548H93.1727V189.627C98.5673 183.06 104.548 177.665 112.523 177.665C122.139 177.665 127.651 182.825 129.293 191.269C135.039 183.881 141.372 177.665 149.933 177.665C161.66 177.665 167.289 185.288 167.289 197.25V230.086ZM218.048 177.548C234.349 177.548 243.027 191.504 243.027 207.101C243.027 228.21 230.596 240.758 216.172 240.758C209.135 240.758 204.21 238.178 201.513 234.074V253.189C201.513 257.88 203.272 259.287 211.598 260.46V262.102H176.768V260.46C182.397 259.287 184.156 257.88 184.156 253.189V192.559C184.156 188.924 181.928 186.695 177.706 186.109L175.947 185.992V184.35L199.871 177.548H201.513V189.627C204.562 182.122 211.012 177.548 218.048 177.548ZM212.653 235.833C219.573 235.833 224.967 225.278 224.967 211.557C224.967 199.126 220.98 186.93 211.481 186.93C206.907 186.93 202.92 189.627 201.513 193.849V216.952C201.513 229.031 204.913 235.833 212.653 235.833ZM281.476 240.758C263.416 240.758 250.985 228.327 250.985 210.502C250.985 191.034 263.885 177.548 282.297 177.548C300.357 177.548 312.788 189.979 312.788 207.922C312.788 227.389 300.005 240.758 281.476 240.758ZM283.822 237.474C291.092 237.474 294.845 228.21 294.845 214.724C294.845 195.96 288.982 180.832 280.069 180.832C272.798 180.832 268.928 190.331 268.928 203.583C268.928 222.581 275.026 237.474 283.822 237.474ZM397.637 179.307H413.352V180.949C409.834 181.418 408.192 182.825 405.964 187.985L383.213 240.758H381.571L363.277 199.009L344.982 240.758H343.457L320.12 187.985C318.244 183.881 316.602 181.418 312.38 180.949V179.307H344.982V180.949C339.822 181.301 337.359 183.646 339.236 187.985L351.784 217.655L361.4 194.904L358.351 187.985C356.475 183.764 354.95 181.418 350.494 180.949V179.307H383.33V180.949C377.936 181.301 375.59 183.646 377.467 187.985L389.897 217.655L402.328 187.985C404.087 183.998 402.446 181.301 397.637 180.949V179.307ZM451.036 228.327C458.307 228.327 464.053 224.34 467.22 219.18L468.627 219.649C466.516 230.907 457.955 240.641 442.592 240.641C423.008 240.641 412.922 226.216 412.922 210.502C412.922 190.8 425.001 177.665 443.296 177.665C460.652 177.665 468.51 187.868 468.627 203.583H429.81V203.934C429.223 219.766 438.136 228.327 451.036 228.327ZM441.42 180.949C434.383 180.949 430.982 190.096 430.044 200.299H451.388C451.153 192.207 448.221 180.949 441.42 180.949ZM519.285 177.548C520.81 177.548 522.569 177.783 524.445 178.604L523.39 194.318C521.161 192.559 518.23 191.855 515.18 191.855C509.669 191.855 504.04 194.67 501.108 199.83V230.086C501.108 234.777 502.867 236.184 511.193 237.357V238.999H476.363V237.357C481.992 236.184 483.751 234.777 483.751 230.086V192.559C483.751 188.924 481.523 186.695 477.301 186.109L475.542 185.992V184.35L499.466 177.548H501.108V195.725C504.86 184.584 511.428 177.548 519.285 177.548ZM566.934 228.327C574.205 228.327 579.952 224.34 583.118 219.18L584.525 219.649C582.414 230.907 573.854 240.641 558.491 240.641C538.906 240.641 528.821 226.216 528.821 210.502C528.821 190.8 540.9 177.665 559.194 177.665C576.551 177.665 584.408 187.868 584.525 203.583H545.708V203.934C545.122 219.766 554.034 228.327 566.934 228.327ZM557.318 180.949C550.282 180.949 546.881 190.096 545.943 200.299H567.286C567.052 192.207 564.12 180.949 557.318 180.949ZM617.933 240.758C601.632 240.758 592.954 226.803 592.954 211.205C592.954 190.096 605.502 177.548 619.81 177.548C626.846 177.548 631.654 180.128 634.469 184.115V170.16C634.469 166.173 631.889 164.296 628.019 163.71L626.26 163.475V161.834L650.183 155.149H651.825V225.747C651.825 229.734 654.405 231.611 658.393 232.197L660.152 232.314V233.956L636.932 240.758H635.29L634.586 228.327C631.654 236.067 625.087 240.758 617.933 240.758ZM624.618 231.376C629.074 231.376 633.062 228.679 634.469 224.457V201.354C634.469 189.275 631.185 182.474 623.328 182.474C616.409 182.474 611.132 193.028 611.132 206.749C611.132 219.18 615.002 231.376 624.618 231.376Z" fill="#F4F2F6"/>
</g>
<defs>
<linearGradient id="paint0_linear_2356_13258" x1="332.541" y1="158.98" x2="25.6646" y2="476.335" gradientUnits="userSpaceOnUse">
<stop stop-color="#00F3C7"/>
<stop offset="0.9999" stop-color="#A63AD8"/>
<stop offset="1" stop-color="#A63AD8"/>
</linearGradient>
<radialGradient id="paint1_radial_2356_13258" cx="0" cy="0" r="1" gradientUnits="userSpaceOnUse" gradientTransform="translate(87.0579 -100.206) rotate(109.564) scale(756.461 986.651)">
<stop stop-color="#A63AD8"/>
<stop offset="1" stop-color="#0ECDC2"/>
</radialGradient>
</defs>
</svg>
