<svg width="660" height="1368" viewBox="0 0 660 1368" fill="none" xmlns="http://www.w3.org/2000/svg">
<path fill-rule="evenodd" clip-rule="evenodd" d="M580.189 478.95C528.148 472.263 467.712 542.833 427.05 648.434C402.01 594.043 349.542 540.523 279.715 504.79C261.901 495.673 243.947 488.222 226.163 482.398C313.653 457.897 373.044 416.802 376.197 370.751C381.196 297.72 242.865 239.882 67.2257 241.565C-108.414 243.248 -254.85 303.815 -259.849 376.845C-264.544 445.434 -142.816 500.622 17.509 505.688C7.7955 515.032 -0.0714967 526.01 -5.72276 538.577C-42.0353 619.326 26.8852 735.119 148.216 797.209C236.731 842.506 328.687 846.706 386.052 814.311C369.705 949.078 398.555 1055.77 458.226 1063.44C502.019 1069.07 551.757 1019.99 590.653 941.358C598.112 954.711 607.88 967.073 619.925 977.837C678.166 1029.89 767.575 1024.87 819.624 966.625C871.673 908.384 866.653 818.975 808.412 766.926C763.616 726.893 700.383 720.62 649.892 746.358C671.233 603.073 642.534 486.96 580.189 478.95Z" fill="url(#paint0_linear_2356_13259)"/>
<path d="M248.667 1101.67C245.167 1101.67 242.583 1099.17 242.583 1095.92C242.583 1092.75 245.167 1090.25 248.667 1090.25C252 1090.25 254.5 1092.75 254.5 1095.92C254.5 1099.17 252 1101.67 248.667 1101.67ZM253.417 1143.83C253.417 1147.42 255.5 1148.17 258.583 1148.83V1150H239.75V1148.83C242.833 1148.17 244.917 1147.42 244.917 1143.83V1116.25C244.917 1113.42 243.5 1112.08 240.5 1111.75H238.75V1110.58L252.25 1106.75H253.417V1143.83ZM304.575 1143.83C304.575 1147.42 306.658 1148.17 309.741 1148.83V1150H290.908V1148.83C293.991 1148.17 296.075 1147.42 296.075 1143.83V1120.42C296.075 1115.5 293.408 1112.5 288.908 1112.5C284.991 1112.5 281.908 1114.17 278.075 1118.42V1143.83C278.075 1147.42 280.158 1148.17 283.241 1148.83V1150H264.408V1148.83C267.491 1148.17 269.575 1147.42 269.575 1143.83V1116.25C269.575 1113.5 268.158 1112.08 265.158 1111.83L263.408 1111.75V1110.58L276.908 1106.83H278.075V1116.33C282.491 1110.67 286.825 1106.83 292.741 1106.83C300.408 1106.83 304.575 1111.75 304.575 1119.92V1143.83ZM331.168 1151.25L314.918 1113.92C313.418 1110.67 312.002 1109.42 309.168 1109.25V1108.08H328.835V1109.25C324.835 1109.33 323.085 1111.08 324.335 1113.92L335.085 1139.83L345.752 1113.92C346.918 1111.17 345.418 1109.42 341.752 1109.25V1108.08H353.918V1109.25C351.168 1109.42 349.752 1110.67 348.335 1113.92L332.335 1151.25H331.168ZM390.403 1137.5L391.403 1137.92C389.57 1145.25 383.403 1151.17 374.153 1151.17C361.736 1151.17 354.57 1141.58 354.57 1129.92C354.57 1116.17 362.653 1106.83 374.82 1106.83C385.653 1106.83 391.32 1114.33 391.32 1125.17H363.07C362.986 1125.58 362.986 1125.92 362.986 1126.33C362.57 1137.67 368.986 1144.42 378.403 1144.42C384.153 1144.42 388.07 1141.25 390.403 1137.5ZM373.57 1109.17C367.903 1109.17 364.236 1115.08 363.236 1122.83H382.486C382.32 1116.25 379.236 1109.17 373.57 1109.17ZM415.354 1151.17C407.271 1151.17 400.437 1147.17 397.937 1141.67L404.771 1138.25C406.104 1144.58 410.687 1148.83 415.937 1148.83C420.854 1148.83 424.354 1146 424.354 1141.67C424.187 1129.17 399.687 1134.83 399.521 1119.33C399.437 1112 405.521 1106.83 414.854 1106.83C422.021 1106.83 428.354 1109.92 430.354 1115.17L424.021 1118.25C422.354 1112.83 418.437 1109.17 414.021 1109.17C409.437 1109.17 406.271 1111.83 406.271 1115.75C406.271 1126.83 430.937 1121.83 431.271 1137.83C431.354 1145.75 424.604 1151.17 415.354 1151.17ZM461.736 1144.75L462.403 1145.25C461.07 1147.67 457.986 1151.25 451.903 1151.25C445.486 1151.25 441.403 1147 441.403 1139.67V1110.42H436.82V1109.25L448.736 1098.17H449.903V1108.08H462.153V1110.42H449.903V1139.33C449.903 1143.83 452.153 1146.92 456.403 1146.92C459.153 1146.92 460.57 1145.75 461.736 1144.75ZM476.206 1101.67C472.706 1101.67 470.122 1099.17 470.122 1095.92C470.122 1092.75 472.706 1090.25 476.206 1090.25C479.539 1090.25 482.039 1092.75 482.039 1095.92C482.039 1099.17 479.539 1101.67 476.206 1101.67ZM480.956 1143.83C480.956 1147.42 483.039 1148.17 486.122 1148.83V1150H467.289V1148.83C470.372 1148.17 472.456 1147.42 472.456 1143.83V1116.25C472.456 1113.42 471.039 1112.08 468.039 1111.75H466.289V1110.58L479.789 1106.75H480.956V1143.83ZM532.114 1143.83C532.114 1147.42 534.197 1148.17 537.28 1148.83V1150H518.447V1148.83C521.53 1148.17 523.614 1147.42 523.614 1143.83V1120.42C523.614 1115.5 520.947 1112.5 516.447 1112.5C512.53 1112.5 509.447 1114.17 505.614 1118.42V1143.83C505.614 1147.42 507.697 1148.17 510.78 1148.83V1150H491.947V1148.83C495.03 1148.17 497.114 1147.42 497.114 1143.83V1116.25C497.114 1113.5 495.697 1112.08 492.697 1111.83L490.947 1111.75V1110.58L504.447 1106.83H505.614V1116.33C510.03 1110.67 514.364 1106.83 520.28 1106.83C527.947 1106.83 532.114 1111.75 532.114 1119.92V1143.83ZM567.426 1143.58C575.26 1144.17 580.593 1147.42 580.593 1154.17C580.593 1162.33 571.093 1167.67 558.01 1167.67C546.676 1167.67 539.426 1163.58 539.426 1157.92C539.426 1152.42 543.676 1149.42 547.926 1148.33C544.76 1146.75 543.426 1144.25 543.426 1141.83C543.426 1138.58 545.593 1135.33 549.426 1133.33C545.176 1130.92 542.176 1126.92 542.176 1121.42C542.176 1113.08 549.01 1106.83 559.51 1106.83C562.26 1106.83 564.76 1107.25 567.01 1108.08H580.093V1110.42H571.343C574.76 1113 576.843 1116.83 576.843 1121.42C576.843 1129.58 569.926 1135.83 559.51 1135.83C556.343 1135.83 553.176 1135.17 550.426 1133.83C549.093 1135.08 548.176 1136.75 548.176 1138.25C548.176 1140 550.26 1142.42 554.176 1142.67L567.426 1143.58ZM558.926 1109.25C554.26 1109.25 551.01 1113.67 551.01 1120C551.01 1127.92 554.76 1133.42 560.093 1133.42C564.76 1133.42 568.01 1129.08 568.01 1122.67C568.01 1114.92 564.343 1109.25 558.926 1109.25ZM560.843 1165.5C568.76 1165.5 575.093 1162.25 575.093 1157.5C575.093 1154.25 572.843 1151.58 566.093 1150.92L554.176 1149.92C552.343 1149.75 550.76 1149.42 549.426 1149C548.176 1150.25 546.343 1152.17 546.343 1155C546.343 1161.58 552.676 1165.5 560.843 1165.5ZM252.833 1235.83C252.833 1239.42 255 1240.17 258 1240.83V1242H239.167V1240.83C242.25 1240.17 244.417 1239.42 244.417 1235.83V1192.42C244.417 1189.58 243 1188.25 240 1188L238.167 1187.92V1186.75L251.667 1182.92H252.833V1235.83ZM282.932 1243.17C271.182 1243.17 263.098 1234.5 263.098 1221.92C263.098 1208.25 271.515 1198.83 283.682 1198.83C295.432 1198.83 303.515 1207.5 303.515 1220.17C303.515 1233.83 295.098 1243.17 282.932 1243.17ZM284.432 1240.83C290.848 1240.83 294.682 1233.83 294.682 1223.75C294.682 1213.42 290.848 1201.17 282.265 1201.17C275.848 1201.17 272.015 1208.17 272.015 1218.17C272.015 1228.67 275.765 1240.83 284.432 1240.83ZM330.213 1243.17C318.463 1243.17 310.38 1234.5 310.38 1221.92C310.38 1208.25 318.797 1198.83 330.963 1198.83C342.713 1198.83 350.797 1207.5 350.797 1220.17C350.797 1233.83 342.38 1243.17 330.213 1243.17ZM331.713 1240.83C338.13 1240.83 341.963 1233.83 341.963 1223.75C341.963 1213.42 338.13 1201.17 329.547 1201.17C323.13 1201.17 319.297 1208.17 319.297 1218.17C319.297 1228.67 323.047 1240.83 331.713 1240.83ZM395.585 1236.42C397.085 1239 398.918 1240.5 403.501 1240.83V1242H388.585C388.418 1240.5 387.585 1239 386.668 1237.42L375.918 1219.17L370.835 1223.83V1235.83C370.835 1239.42 373.001 1240.17 376.001 1240.83V1242H357.168V1240.83C360.251 1240.17 362.418 1239.42 362.418 1235.83V1192.42C362.418 1189.58 361.001 1188.25 358.001 1188L356.168 1187.92V1186.75L369.668 1182.92H370.835V1220.58L387.335 1205.58C390.335 1202.83 389.585 1201.25 384.918 1201.25V1200.08H400.335V1201.25C396.668 1201.25 394.501 1202.25 389.168 1207.08L382.251 1213.42L395.585 1236.42ZM423.573 1243.17C415.49 1243.17 408.657 1239.17 406.157 1233.67L412.99 1230.25C414.323 1236.58 418.907 1240.83 424.157 1240.83C429.073 1240.83 432.573 1238 432.573 1233.67C432.407 1221.17 407.907 1226.83 407.74 1211.33C407.657 1204 413.74 1198.83 423.073 1198.83C430.24 1198.83 436.573 1201.92 438.573 1207.17L432.24 1210.25C430.573 1204.83 426.657 1201.17 422.24 1201.17C417.657 1201.17 414.49 1203.83 414.49 1207.75C414.49 1218.83 439.157 1213.83 439.49 1229.83C439.573 1237.75 432.823 1243.17 423.573 1243.17ZM478.745 1235.83C478.745 1239.42 480.911 1240.17 483.911 1240.83V1242H465.078V1240.83C468.161 1240.17 470.328 1239.42 470.328 1235.83V1192.42C470.328 1189.58 468.911 1188.25 465.911 1188L464.078 1187.92V1186.75L477.578 1182.92H478.745V1235.83ZM498.829 1193.67C495.329 1193.67 492.746 1191.17 492.746 1187.92C492.746 1184.75 495.329 1182.25 498.829 1182.25C502.163 1182.25 504.663 1184.75 504.663 1187.92C504.663 1191.17 502.163 1193.67 498.829 1193.67ZM503.579 1235.83C503.579 1239.42 505.663 1240.17 508.746 1240.83V1242H489.913V1240.83C492.996 1240.17 495.079 1239.42 495.079 1235.83V1208.25C495.079 1205.42 493.663 1204.08 490.663 1203.75H488.913V1202.58L502.413 1198.75H503.579V1235.83ZM552.404 1236.42C553.904 1239 555.737 1240.5 560.321 1240.83V1242H545.404C545.237 1240.5 544.404 1239 543.487 1237.42L532.737 1219.17L527.654 1223.83V1235.83C527.654 1239.42 529.821 1240.17 532.821 1240.83V1242H513.987V1240.83C517.071 1240.17 519.237 1239.42 519.237 1235.83V1192.42C519.237 1189.58 517.821 1188.25 514.821 1188L512.987 1187.92V1186.75L526.487 1182.92H527.654V1220.58L544.154 1205.58C547.154 1202.83 546.404 1201.25 541.737 1201.25V1200.08H557.154V1201.25C553.487 1201.25 551.321 1202.25 545.987 1207.08L539.071 1213.42L552.404 1236.42ZM597.027 1229.5L598.027 1229.92C596.194 1237.25 590.027 1243.17 580.777 1243.17C568.361 1243.17 561.194 1233.58 561.194 1221.92C561.194 1208.17 569.277 1198.83 581.444 1198.83C592.277 1198.83 597.944 1206.33 597.944 1217.17H569.694C569.611 1217.58 569.611 1217.92 569.611 1218.33C569.194 1229.67 575.611 1236.42 585.027 1236.42C590.777 1236.42 594.694 1233.25 597.027 1229.5ZM580.194 1201.17C574.527 1201.17 570.861 1207.08 569.861 1214.83H589.111C588.944 1208.25 585.861 1201.17 580.194 1201.17ZM263.25 1328.75L263.917 1329.25C262.583 1331.67 259.5 1335.25 253.417 1335.25C247 1335.25 242.917 1331 242.917 1323.67V1294.42H238.333V1293.25L250.25 1282.17H251.417V1292.08H263.667V1294.42H251.417V1323.33C251.417 1327.83 253.667 1330.92 257.917 1330.92C260.667 1330.92 262.083 1329.75 263.25 1328.75ZM308.463 1327.83C308.463 1331.42 310.547 1332.17 313.63 1332.83V1334H294.797V1332.83C297.88 1332.17 299.963 1331.42 299.963 1327.83V1304.42C299.963 1299.5 297.297 1296.5 292.797 1296.5C289.047 1296.5 285.88 1298.17 282.13 1302.25V1327.83C282.13 1331.42 284.297 1332.17 287.297 1332.83V1334H268.463V1332.83C271.547 1332.17 273.713 1331.42 273.713 1327.83V1284.42C273.713 1281.58 272.297 1280.25 269.297 1280L267.463 1279.92V1278.75L280.963 1274.92H282.13V1300.08C286.463 1294.58 290.797 1290.83 296.63 1290.83C304.297 1290.83 308.463 1295.75 308.463 1303.92V1327.83ZM327.524 1285.67C324.024 1285.67 321.441 1283.17 321.441 1279.92C321.441 1276.75 324.024 1274.25 327.524 1274.25C330.857 1274.25 333.357 1276.75 333.357 1279.92C333.357 1283.17 330.857 1285.67 327.524 1285.67ZM332.274 1327.83C332.274 1331.42 334.357 1332.17 337.441 1332.83V1334H318.607V1332.83C321.691 1332.17 323.774 1331.42 323.774 1327.83V1300.25C323.774 1297.42 322.357 1296.08 319.357 1295.75H317.607V1294.58L331.107 1290.75H332.274V1327.83ZM359.364 1335.17C351.281 1335.17 344.448 1331.17 341.948 1325.67L348.781 1322.25C350.114 1328.58 354.698 1332.83 359.948 1332.83C364.864 1332.83 368.364 1330 368.364 1325.67C368.198 1313.17 343.698 1318.83 343.531 1303.33C343.448 1296 349.531 1290.83 358.864 1290.83C366.031 1290.83 372.364 1293.92 374.364 1299.17L368.031 1302.25C366.364 1296.83 362.448 1293.17 358.031 1293.17C353.448 1293.17 350.281 1295.83 350.281 1299.75C350.281 1310.83 374.948 1305.83 375.281 1321.83C375.364 1329.75 368.614 1335.17 359.364 1335.17Z" fill="#280146"/>
<path d="M38.0581 930.642C22.3435 930.642 9.32624 924.309 5.2217 911.761L20.7017 907.656C23.1644 919.384 30.9044 927.358 39.9344 927.358C47.5572 927.358 52.7172 922.198 52.7172 914.575C52.7172 892.176 7.8017 900.503 7.8017 872.123C7.8017 858.167 19.1772 848.903 37.7062 848.903C52.2481 848.903 65.2653 855.118 69.3699 867.197L54.1244 871.419C51.6617 859.575 44.5081 852.186 35.8299 852.186C28.6762 852.186 23.7508 856.877 23.7508 863.796C23.7508 884.671 69.7217 877.283 69.7217 906.366C69.7217 921.612 57.1735 930.642 38.0581 930.642ZM143.29 922.198L145.049 922.315V923.957L121.947 930.759H120.305L119.367 918.445V917.859C113.737 924.895 107.639 930.759 99.3129 930.759C87.5856 930.759 81.9565 923.019 81.9565 911.175V882.56C81.9565 878.925 79.8456 876.696 75.5065 876.11L73.7475 875.875V874.234L97.7884 867.549H99.4302V910.002C99.4302 916.1 102.597 919.853 107.757 919.853C112.096 919.853 115.497 918.328 119.367 914.458V882.56C119.367 878.925 117.256 876.696 112.917 876.11L111.157 875.875V874.234L135.198 867.549H136.84V915.748C136.84 919.735 139.303 921.612 143.29 922.198ZM191.135 867.549C207.436 867.549 216.114 881.505 216.114 897.102C216.114 918.211 203.683 930.759 189.258 930.759C182.222 930.759 177.297 928.179 174.599 924.075V943.19C174.599 947.881 176.358 949.288 184.685 950.461V952.103H149.855V950.461C155.484 949.288 157.243 947.881 157.243 943.19V882.56C157.243 878.925 155.015 876.696 150.793 876.11L149.034 875.993V874.351L172.957 867.549H174.599V879.628C177.648 872.123 184.098 867.549 191.135 867.549ZM185.74 925.834C192.659 925.834 198.054 915.279 198.054 901.558C198.054 889.127 194.067 876.931 184.567 876.931C179.994 876.931 176.007 879.628 174.599 883.85V906.953C174.599 919.032 178 925.834 185.74 925.834ZM262.186 918.328C269.456 918.328 275.203 914.341 278.369 909.181L279.776 909.65C277.666 920.908 269.105 930.642 253.742 930.642C234.157 930.642 224.072 916.217 224.072 900.503C224.072 880.801 236.151 867.666 254.446 867.666C271.802 867.666 279.659 877.869 279.776 893.584H240.959V893.935C240.373 909.767 249.286 918.328 262.186 918.328ZM252.569 870.95C245.533 870.95 242.132 880.097 241.194 890.3H262.537C262.303 882.208 259.371 870.95 252.569 870.95ZM330.435 867.549C331.959 867.549 333.718 867.784 335.595 868.605L334.539 884.319C332.311 882.56 329.379 881.856 326.33 881.856C320.818 881.856 315.189 884.671 312.257 889.831V920.087C312.257 924.778 314.016 926.185 322.343 927.358V929H287.513V927.358C293.142 926.185 294.901 924.778 294.901 920.087V882.56C294.901 878.925 292.673 876.696 288.451 876.11L286.692 875.993V874.351L310.615 867.549H312.257V885.726C316.01 874.585 322.577 867.549 330.435 867.549ZM339.147 897.923V891.942H368.465V897.923H339.147ZM43.1008 1047.33C50.3717 1047.33 56.1181 1043.34 59.2844 1038.18L60.6917 1038.65C58.5808 1049.91 50.0199 1059.64 34.6572 1059.64C15.0726 1059.64 4.98715 1045.22 4.98715 1029.5C4.98715 1009.8 17.0662 996.666 35.3608 996.666C52.7172 996.666 60.5744 1006.87 60.6917 1022.58H21.8744V1022.94C21.2881 1038.77 30.2008 1047.33 43.1008 1047.33ZM33.4844 999.95C26.4481 999.95 23.0472 1009.1 22.109 1019.3H43.4526C43.2181 1011.21 40.2862 999.95 33.4844 999.95ZM167.289 1049.09C167.289 1053.78 168.931 1055.19 173.387 1056.48V1058H143.834V1056.48C148.291 1055.19 149.933 1053.78 149.933 1049.09V1017.31C149.933 1011.21 146.649 1007.57 141.489 1007.57C137.033 1007.57 133.749 1009.21 129.762 1013.2C129.879 1014.14 129.879 1015.2 129.879 1016.25V1049.09C129.879 1053.78 131.403 1055.19 135.86 1056.48V1058H106.424V1056.48C110.881 1055.19 112.405 1053.78 112.405 1049.09V1017.31C112.405 1011.21 109.239 1007.57 104.079 1007.57C99.9744 1007.57 96.6908 1008.98 93.1726 1012.26V1049.09C93.1726 1053.78 94.8144 1055.19 99.2708 1056.48V1058H69.718V1056.48C74.1744 1055.19 75.8162 1053.78 75.8162 1049.09V1011.56C75.8162 1007.92 73.588 1005.7 69.3662 1005.11L67.6071 1004.88V1003.23L91.5308 996.549H93.1726V1008.63C98.5671 1002.06 104.548 996.666 112.523 996.666C122.139 996.666 127.651 1001.83 129.293 1010.27C135.039 1002.88 141.372 996.666 149.933 996.666C161.66 996.666 167.289 1004.29 167.289 1016.25V1049.09ZM218.048 996.549C234.349 996.549 243.027 1010.5 243.027 1026.1C243.027 1047.21 230.596 1059.76 216.172 1059.76C209.135 1059.76 204.21 1057.18 201.512 1053.07V1072.19C201.512 1076.88 203.272 1078.29 211.598 1079.46V1081.1H176.768V1079.46C182.397 1078.29 184.156 1076.88 184.156 1072.19V1011.56C184.156 1007.92 181.928 1005.7 177.706 1005.11L175.947 1004.99V1003.35L199.871 996.549H201.512V1008.63C204.562 1001.12 211.012 996.549 218.048 996.549ZM212.653 1054.83C219.572 1054.83 224.967 1044.28 224.967 1030.56C224.967 1018.13 220.98 1005.93 211.481 1005.93C206.907 1005.93 202.92 1008.63 201.512 1012.85V1035.95C201.512 1048.03 204.913 1054.83 212.653 1054.83ZM281.476 1059.76C263.416 1059.76 250.985 1047.33 250.985 1029.5C250.985 1010.04 263.885 996.549 282.297 996.549C300.357 996.549 312.788 1008.98 312.788 1026.92C312.788 1046.39 300.005 1059.76 281.476 1059.76ZM283.821 1056.48C291.092 1056.48 294.845 1047.21 294.845 1033.72C294.845 1014.96 288.981 999.833 280.069 999.833C272.798 999.833 268.928 1009.33 268.928 1022.58C268.928 1041.58 275.026 1056.48 283.821 1056.48ZM397.637 998.308H413.352V999.95C409.834 1000.42 408.192 1001.83 405.964 1006.99L383.213 1059.76H381.571L363.276 1018.01L344.982 1059.76H343.457L320.12 1006.99C318.244 1002.88 316.602 1000.42 312.38 999.95V998.308H344.982V999.95C339.822 1000.3 337.359 1002.65 339.236 1006.99L351.784 1036.66L361.4 1013.91L358.351 1006.99C356.475 1002.76 354.95 1000.42 350.494 999.95V998.308H383.33V999.95C377.936 1000.3 375.59 1002.65 377.466 1006.99L389.897 1036.66L402.328 1006.99C404.087 1003 402.446 1000.3 397.637 999.95V998.308ZM451.036 1047.33C458.307 1047.33 464.053 1043.34 467.219 1038.18L468.627 1038.65C466.516 1049.91 457.955 1059.64 442.592 1059.64C423.008 1059.64 412.922 1045.22 412.922 1029.5C412.922 1009.8 425.001 996.666 443.296 996.666C460.652 996.666 468.509 1006.87 468.627 1022.58H429.809V1022.94C429.223 1038.77 438.136 1047.33 451.036 1047.33ZM441.419 999.95C434.383 999.95 430.982 1009.1 430.044 1019.3H451.388C451.153 1011.21 448.221 999.95 441.419 999.95ZM519.285 996.549C520.809 996.549 522.569 996.784 524.445 997.605L523.389 1013.32C521.161 1011.56 518.229 1010.86 515.18 1010.86C509.669 1010.86 504.039 1013.67 501.108 1018.83V1049.09C501.108 1053.78 502.867 1055.19 511.193 1056.36V1058H476.363V1056.36C481.992 1055.19 483.751 1053.78 483.751 1049.09V1011.56C483.751 1007.92 481.523 1005.7 477.301 1005.11L475.542 1004.99V1003.35L499.466 996.549H501.108V1014.73C504.86 1003.59 511.428 996.549 519.285 996.549ZM566.934 1047.33C574.205 1047.33 579.952 1043.34 583.118 1038.18L584.525 1038.65C582.414 1049.91 573.853 1059.64 558.491 1059.64C538.906 1059.64 528.821 1045.22 528.821 1029.5C528.821 1009.8 540.9 996.666 559.194 996.666C576.551 996.666 584.408 1006.87 584.525 1022.58H545.708V1022.94C545.122 1038.77 554.034 1047.33 566.934 1047.33ZM557.318 999.95C550.282 999.95 546.881 1009.1 545.942 1019.3H567.286C567.052 1011.21 564.12 999.95 557.318 999.95ZM617.933 1059.76C601.632 1059.76 592.954 1045.8 592.954 1030.21C592.954 1009.1 605.502 996.549 619.81 996.549C626.846 996.549 631.654 999.129 634.469 1003.12V989.161C634.469 985.174 631.889 983.297 628.019 982.711L626.26 982.476V980.835L650.183 974.15H651.825V1044.75C651.825 1048.74 654.405 1050.61 658.392 1051.2L660.151 1051.32V1052.96L636.931 1059.76H635.29L634.586 1047.33C631.654 1055.07 625.087 1059.76 617.933 1059.76ZM624.618 1050.38C629.074 1050.38 633.061 1047.68 634.469 1043.46V1020.36C634.469 1008.28 631.185 1001.47 623.328 1001.47C616.409 1001.47 611.131 1012.03 611.131 1025.75C611.131 1038.18 615.001 1050.38 624.618 1050.38Z" fill="#280146"/>
<path fill-rule="evenodd" clip-rule="evenodd" d="M327.42 1141.67C349.603 1103.25 274.142 1018.15 158.872 951.596C43.6024 885.045 -67.8258 862.243 -90.0095 900.666C-110.11 935.481 -50.045 1008.61 47.1615 1071.55C-60.9459 1024.73 -147.056 1009.5 -163.482 1038.83C-185.163 1077.54 -77.22 1179.22 77.6159 1265.95C232.452 1352.67 375.547 1391.6 397.229 1352.89C417.94 1315.91 320.37 1221.47 176.631 1137.5C251.394 1165.39 311.729 1168.84 327.42 1141.67Z" fill="#0ECDC2"/>
<path fill-rule="evenodd" clip-rule="evenodd" d="M327.42 1141.67C349.603 1103.25 274.142 1018.15 158.872 951.596C43.6024 885.045 -67.8258 862.243 -90.0095 900.666C-110.11 935.481 -50.045 1008.61 47.1615 1071.55C-60.9459 1024.73 -147.056 1009.5 -163.482 1038.83C-185.163 1077.54 -77.22 1179.22 77.6159 1265.95C232.452 1352.67 375.547 1391.6 397.229 1352.89C417.94 1315.91 320.37 1221.47 176.631 1137.5C251.394 1165.39 311.729 1168.84 327.42 1141.67Z" fill="url(#paint1_linear_2356_13259)"/>
<mask id="mask0_2356_13259" style="mask-type:alpha" maskUnits="userSpaceOnUse" x="-167" y="881" width="567" height="487">
<path fill-rule="evenodd" clip-rule="evenodd" d="M327.42 1141.67C349.604 1103.24 274.143 1018.14 158.873 951.594C43.6031 885.043 -67.8251 862.241 -90.0088 900.664C-110.109 935.478 -50.0445 1008.61 47.1616 1071.55C-60.9455 1024.73 -147.055 1009.5 -163.481 1038.83C-185.162 1077.53 -77.2191 1179.22 77.6169 1265.94C232.453 1352.67 375.548 1391.59 397.23 1352.89C417.941 1315.91 320.371 1221.47 176.633 1137.49C251.395 1165.39 311.73 1168.84 327.42 1141.67Z" fill="#0ECDC2"/>
<path fill-rule="evenodd" clip-rule="evenodd" d="M327.42 1141.67C349.604 1103.24 274.143 1018.14 158.873 951.594C43.6031 885.043 -67.8251 862.241 -90.0088 900.664C-110.109 935.478 -50.0445 1008.61 47.1616 1071.55C-60.9455 1024.73 -147.055 1009.5 -163.481 1038.83C-185.162 1077.53 -77.2191 1179.22 77.6169 1265.94C232.453 1352.67 375.548 1391.59 397.23 1352.89C417.941 1315.91 320.371 1221.47 176.633 1137.49C251.395 1165.39 311.73 1168.84 327.42 1141.67Z" fill="url(#paint2_radial_2356_13259)"/>
</mask>
<g mask="url(#mask0_2356_13259)">
<path d="M248.667 1101.67C245.167 1101.67 242.583 1099.17 242.583 1095.92C242.583 1092.75 245.167 1090.25 248.667 1090.25C252 1090.25 254.5 1092.75 254.5 1095.92C254.5 1099.17 252 1101.67 248.667 1101.67ZM253.417 1143.84C253.417 1147.42 255.5 1148.17 258.583 1148.84V1150H239.75V1148.84C242.833 1148.17 244.917 1147.42 244.917 1143.84V1116.25C244.917 1113.42 243.5 1112.09 240.5 1111.75H238.75V1110.59L252.25 1106.75H253.417V1143.84ZM304.575 1143.84C304.575 1147.42 306.658 1148.17 309.741 1148.84V1150H290.908V1148.84C293.991 1148.17 296.075 1147.42 296.075 1143.84V1120.42C296.075 1115.5 293.408 1112.5 288.908 1112.5C284.991 1112.5 281.908 1114.17 278.075 1118.42V1143.84C278.075 1147.42 280.158 1148.17 283.241 1148.84V1150H264.408V1148.84C267.491 1148.17 269.575 1147.42 269.575 1143.84V1116.25C269.575 1113.5 268.158 1112.09 265.158 1111.84L263.408 1111.75V1110.59L276.908 1106.84H278.075V1116.34C282.491 1110.67 286.825 1106.84 292.741 1106.84C300.408 1106.84 304.575 1111.75 304.575 1119.92V1143.84ZM331.168 1151.25L314.918 1113.92C313.418 1110.67 312.002 1109.42 309.168 1109.25V1108.09H328.835V1109.25C324.835 1109.34 323.085 1111.09 324.335 1113.92L335.085 1139.84L345.752 1113.92C346.918 1111.17 345.418 1109.42 341.752 1109.25V1108.09H353.918V1109.25C351.168 1109.42 349.752 1110.67 348.335 1113.92L332.335 1151.25H331.168ZM390.403 1137.5L391.403 1137.92C389.57 1145.25 383.403 1151.17 374.153 1151.17C361.736 1151.17 354.57 1141.59 354.57 1129.92C354.57 1116.17 362.653 1106.84 374.82 1106.84C385.653 1106.84 391.32 1114.34 391.32 1125.17H363.07C362.986 1125.59 362.986 1125.92 362.986 1126.34C362.57 1137.67 368.986 1144.42 378.403 1144.42C384.153 1144.42 388.07 1141.25 390.403 1137.5ZM373.57 1109.17C367.903 1109.17 364.236 1115.09 363.236 1122.84H382.486C382.32 1116.25 379.236 1109.17 373.57 1109.17ZM415.354 1151.17C407.271 1151.17 400.437 1147.17 397.937 1141.67L404.771 1138.25C406.104 1144.59 410.687 1148.84 415.937 1148.84C420.854 1148.84 424.354 1146 424.354 1141.67C424.187 1129.17 399.687 1134.84 399.521 1119.34C399.437 1112 405.521 1106.84 414.854 1106.84C422.021 1106.84 428.354 1109.92 430.354 1115.17L424.021 1118.25C422.354 1112.84 418.437 1109.17 414.021 1109.17C409.437 1109.17 406.271 1111.84 406.271 1115.75C406.271 1126.84 430.937 1121.84 431.271 1137.84C431.354 1145.75 424.604 1151.17 415.354 1151.17ZM461.736 1144.75L462.403 1145.25C461.07 1147.67 457.986 1151.25 451.903 1151.25C445.486 1151.25 441.403 1147 441.403 1139.67V1110.42H436.82V1109.25L448.736 1098.17H449.903V1108.09H462.153V1110.42H449.903V1139.34C449.903 1143.84 452.153 1146.92 456.403 1146.92C459.153 1146.92 460.57 1145.75 461.736 1144.75ZM476.206 1101.67C472.706 1101.67 470.122 1099.17 470.122 1095.92C470.122 1092.75 472.706 1090.25 476.206 1090.25C479.539 1090.25 482.039 1092.75 482.039 1095.92C482.039 1099.17 479.539 1101.67 476.206 1101.67ZM480.956 1143.84C480.956 1147.42 483.039 1148.17 486.122 1148.84V1150H467.289V1148.84C470.372 1148.17 472.456 1147.42 472.456 1143.84V1116.25C472.456 1113.42 471.039 1112.09 468.039 1111.75H466.289V1110.59L479.789 1106.75H480.956V1143.84ZM532.114 1143.84C532.114 1147.42 534.197 1148.17 537.28 1148.84V1150H518.447V1148.84C521.53 1148.17 523.614 1147.42 523.614 1143.84V1120.42C523.614 1115.5 520.947 1112.5 516.447 1112.5C512.53 1112.5 509.447 1114.17 505.614 1118.42V1143.84C505.614 1147.42 507.697 1148.17 510.78 1148.84V1150H491.947V1148.84C495.03 1148.17 497.114 1147.42 497.114 1143.84V1116.25C497.114 1113.5 495.697 1112.09 492.697 1111.84L490.947 1111.75V1110.59L504.447 1106.84H505.614V1116.34C510.03 1110.67 514.364 1106.84 520.28 1106.84C527.947 1106.84 532.114 1111.75 532.114 1119.92V1143.84ZM567.426 1143.59C575.26 1144.17 580.593 1147.42 580.593 1154.17C580.593 1162.34 571.093 1167.67 558.01 1167.67C546.676 1167.67 539.426 1163.59 539.426 1157.92C539.426 1152.42 543.676 1149.42 547.926 1148.34C544.76 1146.75 543.426 1144.25 543.426 1141.84C543.426 1138.59 545.593 1135.34 549.426 1133.34C545.176 1130.92 542.176 1126.92 542.176 1121.42C542.176 1113.09 549.01 1106.84 559.51 1106.84C562.26 1106.84 564.76 1107.25 567.01 1108.09H580.093V1110.42H571.343C574.76 1113 576.843 1116.84 576.843 1121.42C576.843 1129.59 569.926 1135.84 559.51 1135.84C556.343 1135.84 553.176 1135.17 550.426 1133.84C549.093 1135.09 548.176 1136.75 548.176 1138.25C548.176 1140 550.26 1142.42 554.176 1142.67L567.426 1143.59ZM558.926 1109.25C554.26 1109.25 551.01 1113.67 551.01 1120C551.01 1127.92 554.76 1133.42 560.093 1133.42C564.76 1133.42 568.01 1129.09 568.01 1122.67C568.01 1114.92 564.343 1109.25 558.926 1109.25ZM560.843 1165.5C568.76 1165.5 575.093 1162.25 575.093 1157.5C575.093 1154.25 572.843 1151.59 566.093 1150.92L554.176 1149.92C552.343 1149.75 550.76 1149.42 549.426 1149C548.176 1150.25 546.343 1152.17 546.343 1155C546.343 1161.59 552.676 1165.5 560.843 1165.5ZM252.833 1235.84C252.833 1239.42 255 1240.17 258 1240.84V1242H239.167V1240.84C242.25 1240.17 244.417 1239.42 244.417 1235.84V1192.42C244.417 1189.59 243 1188.25 240 1188L238.167 1187.92V1186.75L251.667 1182.92H252.833V1235.84ZM282.932 1243.17C271.182 1243.17 263.098 1234.5 263.098 1221.92C263.098 1208.25 271.515 1198.84 283.682 1198.84C295.432 1198.84 303.515 1207.5 303.515 1220.17C303.515 1233.84 295.098 1243.17 282.932 1243.17ZM284.432 1240.84C290.848 1240.84 294.682 1233.84 294.682 1223.75C294.682 1213.42 290.848 1201.17 282.265 1201.17C275.848 1201.17 272.015 1208.17 272.015 1218.17C272.015 1228.67 275.765 1240.84 284.432 1240.84ZM330.213 1243.17C318.463 1243.17 310.38 1234.5 310.38 1221.92C310.38 1208.25 318.797 1198.84 330.963 1198.84C342.713 1198.84 350.797 1207.5 350.797 1220.17C350.797 1233.84 342.38 1243.17 330.213 1243.17ZM331.713 1240.84C338.13 1240.84 341.963 1233.84 341.963 1223.75C341.963 1213.42 338.13 1201.17 329.547 1201.17C323.13 1201.17 319.297 1208.17 319.297 1218.17C319.297 1228.67 323.047 1240.84 331.713 1240.84ZM395.585 1236.42C397.085 1239 398.918 1240.5 403.501 1240.84V1242H388.585C388.418 1240.5 387.585 1239 386.668 1237.42L375.918 1219.17L370.835 1223.84V1235.84C370.835 1239.42 373.001 1240.17 376.001 1240.84V1242H357.168V1240.84C360.251 1240.17 362.418 1239.42 362.418 1235.84V1192.42C362.418 1189.59 361.001 1188.25 358.001 1188L356.168 1187.92V1186.75L369.668 1182.92H370.835V1220.59L387.335 1205.59C390.335 1202.84 389.585 1201.25 384.918 1201.25V1200.09H400.335V1201.25C396.668 1201.25 394.501 1202.25 389.168 1207.09L382.251 1213.42L395.585 1236.42ZM423.573 1243.17C415.49 1243.17 408.657 1239.17 406.157 1233.67L412.99 1230.25C414.323 1236.59 418.907 1240.84 424.157 1240.84C429.073 1240.84 432.573 1238 432.573 1233.67C432.407 1221.17 407.907 1226.84 407.74 1211.34C407.657 1204 413.74 1198.84 423.073 1198.84C430.24 1198.84 436.573 1201.92 438.573 1207.17L432.24 1210.25C430.573 1204.84 426.657 1201.17 422.24 1201.17C417.657 1201.17 414.49 1203.84 414.49 1207.75C414.49 1218.84 439.157 1213.84 439.49 1229.84C439.573 1237.75 432.823 1243.17 423.573 1243.17ZM478.745 1235.84C478.745 1239.42 480.911 1240.17 483.911 1240.84V1242H465.078V1240.84C468.161 1240.17 470.328 1239.42 470.328 1235.84V1192.42C470.328 1189.59 468.911 1188.25 465.911 1188L464.078 1187.92V1186.75L477.578 1182.92H478.745V1235.84ZM498.829 1193.67C495.329 1193.67 492.746 1191.17 492.746 1187.92C492.746 1184.75 495.329 1182.25 498.829 1182.25C502.163 1182.25 504.663 1184.75 504.663 1187.92C504.663 1191.17 502.163 1193.67 498.829 1193.67ZM503.579 1235.84C503.579 1239.42 505.663 1240.17 508.746 1240.84V1242H489.913V1240.84C492.996 1240.17 495.079 1239.42 495.079 1235.84V1208.25C495.079 1205.42 493.663 1204.09 490.663 1203.75H488.913V1202.59L502.413 1198.75H503.579V1235.84ZM552.404 1236.42C553.904 1239 555.737 1240.5 560.321 1240.84V1242H545.404C545.237 1240.5 544.404 1239 543.487 1237.42L532.737 1219.17L527.654 1223.84V1235.84C527.654 1239.42 529.821 1240.17 532.821 1240.84V1242H513.987V1240.84C517.071 1240.17 519.237 1239.42 519.237 1235.84V1192.42C519.237 1189.59 517.821 1188.25 514.821 1188L512.987 1187.92V1186.75L526.487 1182.92H527.654V1220.59L544.154 1205.59C547.154 1202.84 546.404 1201.25 541.737 1201.25V1200.09H557.154V1201.25C553.487 1201.25 551.321 1202.25 545.987 1207.09L539.071 1213.42L552.404 1236.42ZM597.027 1229.5L598.027 1229.92C596.194 1237.25 590.027 1243.17 580.777 1243.17C568.361 1243.17 561.194 1233.59 561.194 1221.92C561.194 1208.17 569.277 1198.84 581.444 1198.84C592.277 1198.84 597.944 1206.34 597.944 1217.17H569.694C569.611 1217.59 569.611 1217.92 569.611 1218.34C569.194 1229.67 575.611 1236.42 585.027 1236.42C590.777 1236.42 594.694 1233.25 597.027 1229.5ZM580.194 1201.17C574.527 1201.17 570.861 1207.09 569.861 1214.84H589.111C588.944 1208.25 585.861 1201.17 580.194 1201.17ZM263.25 1328.75L263.917 1329.25C262.583 1331.67 259.5 1335.25 253.417 1335.25C247 1335.25 242.917 1331 242.917 1323.67V1294.42H238.333V1293.25L250.25 1282.17H251.417V1292.09H263.667V1294.42H251.417V1323.34C251.417 1327.84 253.667 1330.92 257.917 1330.92C260.667 1330.92 262.083 1329.75 263.25 1328.75ZM308.463 1327.84C308.463 1331.42 310.547 1332.17 313.63 1332.84V1334H294.797V1332.84C297.88 1332.17 299.963 1331.42 299.963 1327.84V1304.42C299.963 1299.5 297.297 1296.5 292.797 1296.5C289.047 1296.5 285.88 1298.17 282.13 1302.25V1327.84C282.13 1331.42 284.297 1332.17 287.297 1332.84V1334H268.463V1332.84C271.547 1332.17 273.713 1331.42 273.713 1327.84V1284.42C273.713 1281.59 272.297 1280.25 269.297 1280L267.463 1279.92V1278.75L280.963 1274.92H282.13V1300.09C286.463 1294.59 290.797 1290.84 296.63 1290.84C304.297 1290.84 308.463 1295.75 308.463 1303.92V1327.84ZM327.524 1285.67C324.024 1285.67 321.441 1283.17 321.441 1279.92C321.441 1276.75 324.024 1274.25 327.524 1274.25C330.857 1274.25 333.357 1276.75 333.357 1279.92C333.357 1283.17 330.857 1285.67 327.524 1285.67ZM332.274 1327.84C332.274 1331.42 334.357 1332.17 337.441 1332.84V1334H318.607V1332.84C321.691 1332.17 323.774 1331.42 323.774 1327.84V1300.25C323.774 1297.42 322.357 1296.09 319.357 1295.75H317.607V1294.59L331.107 1290.75H332.274V1327.84ZM359.364 1335.17C351.281 1335.17 344.448 1331.17 341.948 1325.67L348.781 1322.25C350.114 1328.59 354.698 1332.84 359.948 1332.84C364.864 1332.84 368.364 1330 368.364 1325.67C368.198 1313.17 343.698 1318.84 343.531 1303.34C343.448 1296 349.531 1290.84 358.864 1290.84C366.031 1290.84 372.364 1293.92 374.364 1299.17L368.031 1302.25C366.364 1296.84 362.448 1293.17 358.031 1293.17C353.448 1293.17 350.281 1295.84 350.281 1299.75C350.281 1310.84 374.948 1305.84 375.281 1321.84C375.364 1329.75 368.614 1335.17 359.364 1335.17Z" fill="#F4F2F6"/>
<path d="M38.0581 930.641C22.3435 930.641 9.32624 924.308 5.2217 911.76L20.7017 907.655C23.1644 919.383 30.9044 927.357 39.9344 927.357C47.5572 927.357 52.7172 922.197 52.7172 914.574C52.7172 892.175 7.8017 900.502 7.8017 872.122C7.8017 858.166 19.1772 848.902 37.7062 848.902C52.2481 848.902 65.2653 855.117 69.3699 867.196L54.1244 871.418C51.6617 859.574 44.5081 852.185 35.8299 852.185C28.6762 852.185 23.7508 856.876 23.7508 863.795C23.7508 884.67 69.7217 877.282 69.7217 906.365C69.7217 921.611 57.1735 930.641 38.0581 930.641ZM143.29 922.197L145.049 922.314V923.956L121.947 930.758H120.305L119.367 918.444V917.858C113.737 924.894 107.639 930.758 99.3129 930.758C87.5856 930.758 81.9565 923.018 81.9565 911.174V882.559C81.9565 878.924 79.8456 876.695 75.5065 876.109L73.7475 875.874V874.233L97.7884 867.548H99.4302V910.001C99.4302 916.099 102.597 919.852 107.757 919.852C112.096 919.852 115.497 918.327 119.367 914.457V882.559C119.367 878.924 117.256 876.695 112.917 876.109L111.157 875.874V874.233L135.198 867.548H136.84V915.747C136.84 919.734 139.303 921.611 143.29 922.197ZM191.135 867.548C207.436 867.548 216.114 881.504 216.114 897.101C216.114 918.21 203.683 930.758 189.258 930.758C182.222 930.758 177.297 928.178 174.599 924.074V943.189C174.599 947.88 176.358 949.287 184.685 950.46V952.102H149.855V950.46C155.484 949.287 157.243 947.88 157.243 943.189V882.559C157.243 878.924 155.015 876.695 150.793 876.109L149.034 875.992V874.35L172.957 867.548H174.599V879.627C177.648 872.122 184.098 867.548 191.135 867.548ZM185.74 925.833C192.659 925.833 198.054 915.278 198.054 901.557C198.054 889.126 194.067 876.93 184.567 876.93C179.994 876.93 176.007 879.627 174.599 883.849V906.952C174.599 919.031 178 925.833 185.74 925.833ZM262.186 918.327C269.456 918.327 275.203 914.34 278.369 909.18L279.776 909.649C277.666 920.907 269.105 930.641 253.742 930.641C234.157 930.641 224.072 916.216 224.072 900.502C224.072 880.8 236.151 867.665 254.446 867.665C271.802 867.665 279.659 877.868 279.776 893.583H240.959V893.934C240.373 909.766 249.286 918.327 262.186 918.327ZM252.569 870.949C245.533 870.949 242.132 880.096 241.194 890.299H262.537C262.303 882.207 259.371 870.949 252.569 870.949ZM330.435 867.548C331.959 867.548 333.718 867.783 335.595 868.604L334.539 884.318C332.311 882.559 329.379 881.855 326.33 881.855C320.818 881.855 315.189 884.67 312.257 889.83V920.086C312.257 924.777 314.016 926.184 322.343 927.357V928.999H287.513V927.357C293.142 926.184 294.901 924.777 294.901 920.086V882.559C294.901 878.924 292.673 876.695 288.451 876.109L286.692 875.992V874.35L310.615 867.548H312.257V885.725C316.01 874.584 322.577 867.548 330.435 867.548ZM339.147 897.922V891.941H368.465V897.922H339.147ZM43.1008 1047.33C50.3717 1047.33 56.1181 1043.34 59.2844 1038.18L60.6917 1038.65C58.5808 1049.91 50.0199 1059.64 34.6572 1059.64C15.0726 1059.64 4.98715 1045.22 4.98715 1029.5C4.98715 1009.8 17.0662 996.665 35.3608 996.665C52.7172 996.665 60.5744 1006.87 60.6917 1022.58H21.8744V1022.93C21.2881 1038.77 30.2008 1047.33 43.1008 1047.33ZM33.4844 999.949C26.4481 999.949 23.0472 1009.1 22.109 1019.3H43.4526C43.2181 1011.21 40.2862 999.949 33.4844 999.949ZM167.289 1049.09C167.289 1053.78 168.931 1055.18 173.387 1056.47V1058H143.834V1056.47C148.291 1055.18 149.933 1053.78 149.933 1049.09V1017.31C149.933 1011.21 146.649 1007.57 141.489 1007.57C137.033 1007.57 133.749 1009.21 129.762 1013.2C129.879 1014.14 129.879 1015.19 129.879 1016.25V1049.09C129.879 1053.78 131.403 1055.18 135.86 1056.47V1058H106.424V1056.47C110.881 1055.18 112.405 1053.78 112.405 1049.09V1017.31C112.405 1011.21 109.239 1007.57 104.079 1007.57C99.9744 1007.57 96.6908 1008.98 93.1726 1012.26V1049.09C93.1726 1053.78 94.8144 1055.18 99.2708 1056.47V1058H69.718V1056.47C74.1744 1055.18 75.8162 1053.78 75.8162 1049.09V1011.56C75.8162 1007.92 73.588 1005.7 69.3662 1005.11L67.6071 1004.87V1003.23L91.5308 996.548H93.1726V1008.63C98.5671 1002.06 104.548 996.665 112.523 996.665C122.139 996.665 127.651 1001.83 129.293 1010.27C135.039 1002.88 141.372 996.665 149.933 996.665C161.66 996.665 167.289 1004.29 167.289 1016.25V1049.09ZM218.048 996.548C234.349 996.548 243.027 1010.5 243.027 1026.1C243.027 1047.21 230.596 1059.76 216.172 1059.76C209.135 1059.76 204.21 1057.18 201.512 1053.07V1072.19C201.512 1076.88 203.272 1078.29 211.598 1079.46V1081.1H176.768V1079.46C182.397 1078.29 184.156 1076.88 184.156 1072.19V1011.56C184.156 1007.92 181.928 1005.7 177.706 1005.11L175.947 1004.99V1003.35L199.871 996.548H201.512V1008.63C204.562 1001.12 211.012 996.548 218.048 996.548ZM212.653 1054.83C219.572 1054.83 224.967 1044.28 224.967 1030.56C224.967 1018.13 220.98 1005.93 211.481 1005.93C206.907 1005.93 202.92 1008.63 201.512 1012.85V1035.95C201.512 1048.03 204.913 1054.83 212.653 1054.83ZM281.476 1059.76C263.416 1059.76 250.985 1047.33 250.985 1029.5C250.985 1010.03 263.885 996.548 282.297 996.548C300.357 996.548 312.788 1008.98 312.788 1026.92C312.788 1046.39 300.005 1059.76 281.476 1059.76ZM283.821 1056.47C291.092 1056.47 294.845 1047.21 294.845 1033.72C294.845 1014.96 288.981 999.832 280.069 999.832C272.798 999.832 268.928 1009.33 268.928 1022.58C268.928 1041.58 275.026 1056.47 283.821 1056.47ZM397.637 998.307H413.352V999.949C409.834 1000.42 408.192 1001.83 405.964 1006.99L383.213 1059.76H381.571L363.276 1018.01L344.982 1059.76H343.457L320.12 1006.99C318.244 1002.88 316.602 1000.42 312.38 999.949V998.307H344.982V999.949C339.822 1000.3 337.359 1002.65 339.236 1006.99L351.784 1036.66L361.4 1013.9L358.351 1006.99C356.475 1002.76 354.95 1000.42 350.494 999.949V998.307H383.33V999.949C377.936 1000.3 375.59 1002.65 377.466 1006.99L389.897 1036.66L402.328 1006.99C404.087 1003 402.446 1000.3 397.637 999.949V998.307ZM451.036 1047.33C458.307 1047.33 464.053 1043.34 467.219 1038.18L468.627 1038.65C466.516 1049.91 457.955 1059.64 442.592 1059.64C423.008 1059.64 412.922 1045.22 412.922 1029.5C412.922 1009.8 425.001 996.665 443.296 996.665C460.652 996.665 468.509 1006.87 468.627 1022.58H429.809V1022.93C429.223 1038.77 438.136 1047.33 451.036 1047.33ZM441.419 999.949C434.383 999.949 430.982 1009.1 430.044 1019.3H451.388C451.153 1011.21 448.221 999.949 441.419 999.949ZM519.285 996.548C520.809 996.548 522.569 996.783 524.445 997.604L523.389 1013.32C521.161 1011.56 518.229 1010.86 515.18 1010.86C509.669 1010.86 504.039 1013.67 501.108 1018.83V1049.09C501.108 1053.78 502.867 1055.18 511.193 1056.36V1058H476.363V1056.36C481.992 1055.18 483.751 1053.78 483.751 1049.09V1011.56C483.751 1007.92 481.523 1005.7 477.301 1005.11L475.542 1004.99V1003.35L499.466 996.548H501.108V1014.73C504.86 1003.58 511.428 996.548 519.285 996.548ZM566.934 1047.33C574.205 1047.33 579.952 1043.34 583.118 1038.18L584.525 1038.65C582.414 1049.91 573.853 1059.64 558.491 1059.64C538.906 1059.64 528.821 1045.22 528.821 1029.5C528.821 1009.8 540.9 996.665 559.194 996.665C576.551 996.665 584.408 1006.87 584.525 1022.58H545.708V1022.93C545.122 1038.77 554.034 1047.33 566.934 1047.33ZM557.318 999.949C550.282 999.949 546.881 1009.1 545.942 1019.3H567.286C567.052 1011.21 564.12 999.949 557.318 999.949ZM617.933 1059.76C601.632 1059.76 592.954 1045.8 592.954 1030.21C592.954 1009.1 605.502 996.548 619.81 996.548C626.846 996.548 631.654 999.128 634.469 1003.12V989.16C634.469 985.173 631.889 983.296 628.019 982.71L626.26 982.475V980.834L650.183 974.149H651.825V1044.75C651.825 1048.73 654.405 1050.61 658.392 1051.2L660.151 1051.31V1052.96L636.931 1059.76H635.29L634.586 1047.33C631.654 1055.07 625.087 1059.76 617.933 1059.76ZM624.618 1050.38C629.074 1050.38 633.061 1047.68 634.469 1043.46V1020.35C634.469 1008.28 631.185 1001.47 623.328 1001.47C616.409 1001.47 611.131 1012.03 611.131 1025.75C611.131 1038.18 615.001 1050.38 624.618 1050.38Z" fill="#F4F2F6"/>
</g>
<defs>
<linearGradient id="paint0_linear_2356_13259" x1="782.301" y1="791.772" x2="207.993" y2="1015.08" gradientUnits="userSpaceOnUse">
<stop stop-color="#00F3C7"/>
<stop offset="0.9999" stop-color="#A63AD8"/>
<stop offset="1" stop-color="#A63AD8"/>
</linearGradient>
<linearGradient id="paint1_linear_2356_13259" x1="332.541" y1="977.98" x2="25.6645" y2="1295.33" gradientUnits="userSpaceOnUse">
<stop stop-color="#00F3C7"/>
<stop offset="0.9999" stop-color="#A63AD8"/>
<stop offset="1" stop-color="#A63AD8"/>
</linearGradient>
<radialGradient id="paint2_radial_2356_13259" cx="0" cy="0" r="1" gradientUnits="userSpaceOnUse" gradientTransform="translate(87.0578 718.794) rotate(109.564) scale(756.461 986.651)">
<stop stop-color="#A63AD8"/>
<stop offset="1" stop-color="#0ECDC2"/>
</radialGradient>
</defs>
</svg>
