<svg width="660" height="185" viewBox="0 0 660 185" fill="none" xmlns="http://www.w3.org/2000/svg">
<path fill-rule="evenodd" clip-rule="evenodd" d="M58.381 153.681V153.799L58.25 153.81L58.381 153.681ZM58.381 153.799C61.6616 153.539 66.7623 152.997 66.7623 149.833V86.2034H59.1667V84.5357H66.7623V84.4074C66.7623 63.4967 80.3819 53.3622 90.2037 50.2833C92.6918 49.5136 95.311 49.1288 97.9301 49.1288C108.276 49.1288 118.49 54.7733 115.871 64.6513C115.74 65.6775 112.466 71.4504 109.585 70.9372C108.457 70.7162 108.301 69.161 108.08 66.9593C107.789 64.0523 107.385 60.0183 104.478 56.441C101.99 53.3622 98.454 51.3096 94.1324 51.3096C92.5609 51.3096 90.9894 51.5662 89.4179 52.0793C79.4652 55.2865 78.8104 68.2432 78.8104 84.2791V84.4074H98.0611V86.0751H78.8104V149.704C78.8104 152.784 85.332 153.38 88.2852 153.649L88.6322 153.681V154.964H58.381V153.799ZM173.949 85.6903C174.239 85.7242 174.543 85.7572 174.858 85.7914C178.108 86.1434 182.462 86.6152 182.462 89.5388V149.704C182.462 152.912 177.223 153.425 173.949 153.681V154.964H202.891V153.681L202.829 153.675C200.056 153.417 194.379 152.888 194.379 149.704V127.639C194.903 117.633 207.213 90.1803 220.57 90.1803C229.213 90.1803 230.523 101.341 230.523 117.762V149.704C230.523 152.912 225.285 153.425 222.011 153.681V154.964H250.952V153.681L250.891 153.675C248.117 153.417 242.44 152.888 242.44 149.704V117.89L242.441 116.381C242.455 98.3272 242.466 83.5094 224.499 83.5094C211.141 83.5094 198.438 105.446 194.379 120.327V84.5357H173.949V85.6903ZM256.068 85.7914C255.752 85.7572 255.448 85.7242 255.159 85.6903V84.5357H275.588V120.327C279.648 105.446 292.351 83.5094 305.708 83.5094C323.675 83.5094 323.664 98.3269 323.65 116.381L323.649 117.89V149.704C323.649 152.888 329.326 153.417 332.1 153.675L332.162 153.681V154.964H303.22V153.681C306.494 153.425 311.732 152.912 311.732 149.704V117.762C311.732 101.341 310.423 90.1803 301.78 90.1803C288.422 90.1803 276.112 117.633 275.588 127.639V149.704C275.588 152.888 281.265 153.417 284.038 153.675L284.1 153.681V154.964H255.159V153.681C258.433 153.425 263.671 152.912 263.671 149.704V89.5388C263.671 86.6149 259.318 86.1434 256.068 85.7914ZM438.614 154.964V153.681L438.52 153.671C434.991 153.287 430.102 152.756 430.102 149.576V55.7996H409.673V57.0825L409.979 57.1185C413.264 57.5015 418.185 58.0751 418.185 61.0593V149.576C418.185 152.688 413.253 153.264 409.967 153.647L409.673 153.681V154.964H438.614ZM371.069 155.736C351.819 155.736 336.758 136.237 336.758 118.661C336.758 99.9319 351.689 82.8697 371.723 82.8697C382.464 82.8697 399.335 88.7108 398.173 107.814C398.099 109.003 396.526 123.664 378.251 127.537C370.377 129.206 359.852 127.303 352.213 122.904C352.213 122.904 351.85 121.478 351.85 120.409C351.85 120.409 357.505 123.997 364.79 124.329C381.162 125.077 385.4 113.281 386.129 103.966C386.857 94.6497 382.319 84.5374 368.58 85.2502C352.757 86.0712 348.936 103.011 348.936 114.941C348.936 120.971 349.724 126.102 351.295 131.362L352.604 134.569C352.604 134.569 359.676 148.937 373.297 150.348C388.357 151.887 398.833 141.753 404.857 129.566L406.297 130.079C400.534 143.677 388.748 155.736 371.069 155.736ZM102.462 118.661C102.462 136.237 117.522 155.736 136.772 155.736C154.452 155.736 166.238 143.677 172 130.079L170.56 129.566C164.536 141.753 154.059 151.887 138.999 150.348C125.379 148.937 118.307 134.569 118.307 134.569L116.998 131.362C115.426 126.102 114.641 120.971 114.641 114.941C114.641 103.011 118.46 86.0712 134.284 85.2502C148.022 84.5374 152.56 94.6497 151.833 103.966C151.105 113.281 146.866 125.077 130.494 124.329C123.209 123.997 117.553 120.409 117.553 120.409C117.553 121.478 117.916 122.904 117.916 122.904C125.557 127.303 136.08 129.206 143.956 127.537C162.229 123.664 163.804 109.003 163.876 107.814C165.039 88.7108 148.166 82.8697 137.427 82.8697C117.391 82.8697 102.462 99.9319 102.462 118.661Z" fill="#280146"/>
<path opacity="0.2" d="M542.986 97.5528C509.566 101.171 504.455 155.69 476.302 100.506C475.792 99.5076 475.186 98.5652 474.715 97.5528L471.075 98.1181C478.366 123.916 491.269 149.327 516.928 153.123C526.313 154.51 535.894 152.919 544.304 148.207C571.986 132.697 580.944 92.728 584.963 62.5224C586.312 52.3721 587.16 42.1534 587.636 31.9151L587.157 31.7888C584.314 61.0552 574.555 94.1349 542.986 97.5528Z" fill="url(#paint0_linear_2322_13235)"/>
<path fill-rule="evenodd" clip-rule="evenodd" d="M591.148 29.6335C593.234 29.0375 594.759 27.1505 594.759 24.9147C594.759 22.2004 592.511 20 589.742 20C586.97 20 584.725 22.2004 584.725 24.9147C584.725 26.794 585.802 28.427 587.384 29.2538C582.962 67.7504 573.131 114.605 550.486 135.568C555.183 126.491 558.72 115.207 561.427 103.094C565.09 86.7085 567.253 68.6953 568.664 52.3362C570.339 51.5401 571.493 49.858 571.493 47.9118C571.493 45.1974 569.248 42.997 566.476 42.997C563.706 42.997 561.459 45.1974 561.459 47.9118C561.459 49.8774 562.638 51.5735 564.341 52.3596C563.244 62.2769 561.884 72.2768 560.183 81.8543C557.38 97.6425 553.664 112.237 548.737 123.408C545.14 131.559 540.939 137.802 536.035 141.403C538.3 131.45 539.89 117.837 541.044 103.133C541.903 92.1976 542.526 80.5403 542.991 69.1352C544.482 68.2833 545.486 66.7 545.486 64.8876C545.486 62.1734 543.238 59.9728 540.469 59.9728C537.696 59.9728 535.451 62.1734 535.451 64.8876C535.451 66.7758 536.537 68.4154 538.133 69.2385C537.917 73.4838 537.682 77.6906 537.424 81.8187C536.441 97.605 535.14 112.171 533.416 123.298C532.554 128.868 531.596 133.497 530.55 136.959C530.015 138.724 529.482 140.098 528.969 141.118C528.447 142.152 527.971 142.767 527.58 143.08C527.342 143.269 527.186 143.324 527.101 143.338C527.024 143.35 526.953 143.341 526.857 143.293C526.602 143.166 526.145 142.744 525.561 141.637C524.405 139.436 523.28 135.554 522.248 130.281C520.201 119.838 518.696 104.968 517.619 90.0962C517.338 86.2515 517.08 82.366 516.837 78.4494C518.22 77.5745 519.135 76.0506 519.135 74.3174C519.135 71.6031 516.891 69.4026 514.118 69.4026C511.349 69.4026 509.101 71.6031 509.101 74.3174C509.101 76.3883 510.411 78.1601 512.262 78.8837C512.854 91.0719 513.634 103.569 514.697 114.835C515.655 124.974 516.851 134.2 518.373 141.338C518.481 141.836 518.588 142.325 518.696 142.804C518.413 142.636 518.129 142.458 517.849 142.27C514.147 139.8 510.844 135.693 507.908 130.438C502.037 119.922 497.743 105.004 494.673 90.1378C494.018 86.9726 493.403 83.7797 492.819 80.565C494.339 79.7203 495.362 78.1212 495.362 76.2878C495.362 73.5735 493.117 71.3729 490.345 71.3729C487.575 71.3729 485.327 73.5735 485.327 76.2878C485.327 78.465 486.773 80.3115 488.777 80.9571C490.43 92.4711 492.561 104.176 495.416 114.785C498.143 124.921 501.541 134.1 505.838 141.167C505.969 141.382 506.099 141.594 506.23 141.805C490.781 132.648 480.548 111.849 473.969 91.2965C472.405 86.4042 471.237 81.5055 470.055 76.5352C469.805 75.4886 469.556 74.4373 469.301 73.3836C470.797 72.5333 471.804 70.9464 471.804 69.1293C471.804 66.4151 469.559 64.2145 466.787 64.2145C464.017 64.2145 461.769 66.4151 461.769 69.1293C461.769 71.293 463.198 73.1301 465.179 73.7865C472.206 109.429 485.628 149.823 517.205 155.149C527.191 156.834 537.39 154.903 546.342 149.184C575.802 130.362 585.334 81.8568 589.612 45.2009C590.215 40.025 590.723 34.8344 591.148 29.6335Z" fill="url(#paint1_linear_2322_13235)"/>
<defs>
<linearGradient id="paint0_linear_2322_13235" x1="492.406" y1="131.684" x2="565.497" y2="145.939" gradientUnits="userSpaceOnUse">
<stop stop-color="#0ECDC2"/>
<stop offset="1" stop-color="#0ECDC2"/>
</linearGradient>
<linearGradient id="paint1_linear_2322_13235" x1="486.104" y1="131.309" x2="569.351" y2="147.933" gradientUnits="userSpaceOnUse">
<stop stop-color="#00F3C7"/>
<stop offset="1" stop-color="#0ECDC2"/>
</linearGradient>
</defs>
</svg>
