<svg width="25" height="25" viewBox="0 0 25 25" fill="none" xmlns="http://www.w3.org/2000/svg">
<g clip-path="url(#clip0_2367_13263)">
<path d="M12.2781 2.68594C15.5113 2.68594 15.8942 2.70012 17.1657 2.75684C18.3474 2.80883 18.9856 3.00736 19.411 3.17281C19.9735 3.39024 20.38 3.65495 20.8007 4.07564C21.2261 4.50106 21.4861 4.90285 21.7035 5.46535C21.869 5.89077 22.0675 6.53363 22.1195 7.71063C22.1762 8.98689 22.1904 9.36977 22.1904 12.5982C22.1904 15.8314 22.1762 16.2143 22.1195 17.4859C22.0675 18.6676 21.869 19.3057 21.7035 19.7311C21.4861 20.2936 21.2214 20.7001 20.8007 21.1208C20.3753 21.5463 19.9735 21.8062 19.411 22.0237C18.9856 22.1891 18.3427 22.3876 17.1657 22.4396C15.8895 22.4964 15.5066 22.5105 12.2781 22.5105C9.04491 22.5105 8.66203 22.4964 7.39049 22.4396C6.20877 22.3876 5.57064 22.1891 5.14522 22.0237C4.58272 21.8062 4.1762 21.5415 3.75551 21.1208C3.33009 20.6954 3.07011 20.2936 2.85267 19.7311C2.68723 19.3057 2.4887 18.6628 2.4367 17.4859C2.37998 16.2096 2.3658 15.8267 2.3658 12.5982C2.3658 9.36504 2.37998 8.98216 2.4367 7.71063C2.4887 6.5289 2.68723 5.89077 2.85267 5.46535C3.07011 4.90285 3.33481 4.49634 3.75551 4.07564C4.18093 3.65022 4.58272 3.39024 5.14522 3.17281C5.57064 3.00736 6.2135 2.80883 7.39049 2.75684C8.66203 2.70012 9.04491 2.68594 12.2781 2.68594ZM12.2781 0.506836C8.99291 0.506836 8.58167 0.521017 7.29123 0.577739C6.00551 0.634462 5.12158 0.842446 4.35582 1.14024C3.55698 1.45222 2.88103 1.86346 2.20981 2.5394C1.53387 3.21062 1.12263 3.88657 0.81065 4.68069C0.512856 5.45117 0.304872 6.33037 0.24815 7.61609C0.191427 8.91126 0.177246 9.3225 0.177246 12.6077C0.177246 15.8929 0.191427 16.3041 0.24815 17.5946C0.304872 18.8803 0.512856 19.7642 0.81065 20.53C1.12263 21.3288 1.53387 22.0048 2.20981 22.676C2.88103 23.3472 3.55698 23.7632 4.3511 24.0704C5.12158 24.3682 6.00078 24.5762 7.2865 24.6329C8.57694 24.6896 8.98818 24.7038 12.2734 24.7038C15.5586 24.7038 15.9698 24.6896 17.2603 24.6329C18.546 24.5762 19.4299 24.3682 20.1957 24.0704C20.9898 23.7632 21.6657 23.3472 22.3369 22.676C23.0082 22.0048 23.4241 21.3288 23.7314 20.5347C24.0292 19.7642 24.2372 18.885 24.2939 17.5993C24.3506 16.3089 24.3648 15.8976 24.3648 12.6124C24.3648 9.32723 24.3506 8.91599 24.2939 7.62554C24.2372 6.33983 24.0292 5.4559 23.7314 4.69014C23.4336 3.88657 23.0223 3.21062 22.3464 2.5394C21.6752 1.86818 20.9992 1.45222 20.2051 1.14497C19.4346 0.847173 18.5554 0.639189 17.2697 0.582466C15.9745 0.521017 15.5633 0.506836 12.2781 0.506836Z" fill="white"/>
<path d="M12.2779 6.39148C8.84615 6.39148 6.06201 9.17562 6.06201 12.6074C6.06201 16.0391 8.84615 18.8232 12.2779 18.8232C15.7096 18.8232 18.4938 16.0391 18.4938 12.6074C18.4938 9.17562 15.7096 6.39148 12.2779 6.39148ZM12.2779 16.6394C10.0515 16.6394 8.24584 14.8337 8.24584 12.6074C8.24584 10.381 10.0515 8.57531 12.2779 8.57531C14.5043 8.57531 16.3099 10.381 16.3099 12.6074C16.3099 14.8337 14.5043 16.6394 12.2779 16.6394Z" fill="white"/>
<path d="M20.1906 6.14635C20.1906 6.94992 19.5383 7.59751 18.7395 7.59751C17.9359 7.59751 17.2883 6.9452 17.2883 6.14635C17.2883 5.34278 17.9406 4.69519 18.7395 4.69519C19.5383 4.69519 20.1906 5.3475 20.1906 6.14635Z" fill="white"/>
</g>
<defs>
<clipPath id="clip0_2367_13263">
<rect width="24.2017" height="24.2017" fill="white" transform="translate(0.17749 0.508057)"/>
</clipPath>
</defs>
</svg>
