<svg width="25" height="25" viewBox="0 0 25 25" fill="none" xmlns="http://www.w3.org/2000/svg">
<g clip-path="url(#clip0_2367_13264)">
<path d="M22.8709 0.506592H2.24746C1.25954 0.506592 0.460693 1.28653 0.460693 2.25082V22.9594C0.460693 23.9236 1.25954 24.7083 2.24746 24.7083H22.8709C23.8588 24.7083 24.6624 23.9236 24.6624 22.9641V2.25082C24.6624 1.28653 23.8588 0.506592 22.8709 0.506592ZM7.64085 21.13H4.04841V9.57751H7.64085V21.13ZM5.84463 8.00345C4.69127 8.00345 3.76007 7.07225 3.76007 5.92362C3.76007 4.77498 4.69127 3.84378 5.84463 3.84378C6.99327 3.84378 7.92446 4.77498 7.92446 5.92362C7.92446 7.06753 6.99327 8.00345 5.84463 8.00345ZM21.0841 21.13H17.4964V15.5145C17.4964 14.1768 17.4728 12.4515 15.6293 12.4515C13.7622 12.4515 13.4786 13.9121 13.4786 15.42V21.13H9.89558V9.57751H13.3368V11.1563H13.384C13.8614 10.2487 15.0337 9.28917 16.7779 9.28917C20.4129 9.28917 21.0841 11.681 21.0841 14.7913V21.13V21.13Z" fill="white"/>
</g>
<defs>
<clipPath id="clip0_2367_13264">
<rect width="24.2017" height="24.2017" fill="white" transform="translate(0.459961 0.507812)"/>
</clipPath>
</defs>
</svg>
