<svg width="25" height="25" viewBox="0 0 25 25" fill="none" xmlns="http://www.w3.org/2000/svg">
<g clip-path="url(#clip0_2367_13266)">
<path d="M17.9592 0.507446H13.8805V16.9926C13.8805 18.9569 12.3118 20.5703 10.3596 20.5703C8.40742 20.5703 6.83869 18.9569 6.83869 16.9926C6.83869 15.0636 8.37256 13.4851 10.2551 13.415V9.2762C6.10662 9.34632 2.76001 12.7486 2.76001 16.9926C2.76001 21.2718 6.17634 24.7092 10.3945 24.7092C14.6126 24.7092 18.0289 21.2368 18.0289 16.9926V8.53959C19.5628 9.66201 21.4452 10.3284 23.4323 10.3635V6.22466C20.3646 6.11944 17.9592 3.59404 17.9592 0.507446Z" fill="white"/>
</g>
<defs>
<clipPath id="clip0_2367_13266">
<rect width="24.2017" height="24.2017" fill="white" transform="translate(0.742188 0.507812)"/>
</clipPath>
</defs>
</svg>
