<svg width="25" height="25" viewBox="0 0 25 25" fill="none" xmlns="http://www.w3.org/2000/svg">
<g clip-path="url(#clip0_2367_13262)">
<path d="M7.63778 22.4395C16.7683 22.4395 21.7636 14.8732 21.7636 8.31366C21.7636 8.10095 21.7589 7.88351 21.7495 7.6708C22.7212 6.96805 23.5598 6.09758 24.2259 5.10031C23.3209 5.50297 22.36 5.76595 21.376 5.88025C22.412 5.25925 23.1878 4.28368 23.5594 3.1344C22.5848 3.712 21.5189 4.11945 20.4075 4.33928C19.6587 3.5436 18.6686 3.01677 17.5903 2.84023C16.512 2.66369 15.4056 2.84729 14.4421 3.36263C13.4786 3.87797 12.7117 4.69636 12.26 5.69125C11.8083 6.68615 11.6969 7.80215 11.943 8.86671C9.96956 8.76767 8.03891 8.25501 6.27626 7.36197C4.51362 6.46892 2.95832 5.21541 1.7112 3.68272C1.07735 4.77555 0.883388 6.06873 1.16874 7.29944C1.45409 8.53014 2.19735 9.60602 3.24744 10.3084C2.45909 10.2834 1.68801 10.0711 0.997911 9.68919V9.75064C0.997205 10.8975 1.39368 12.0092 2.11995 12.8968C2.84621 13.7843 3.85744 14.393 4.98174 14.6193C4.25146 14.8192 3.485 14.8483 2.74166 14.7044C3.05892 15.6907 3.67618 16.5534 4.50731 17.172C5.33843 17.7906 6.34195 18.1342 7.37781 18.1551C5.61923 19.5364 3.44687 20.2857 1.21062 20.2822C0.81404 20.2816 0.41785 20.2573 0.0241699 20.2094C2.29596 21.6668 4.93866 22.4409 7.63778 22.4395Z" fill="white"/>
</g>
<defs>
<clipPath id="clip0_2367_13262">
<rect width="24.2017" height="24.2017" fill="white" transform="translate(0.0244141 0.507812)"/>
</clipPath>
</defs>
</svg>
