<svg width="660" height="823" viewBox="0 0 660 823" fill="none" xmlns="http://www.w3.org/2000/svg">
<path fill-rule="evenodd" clip-rule="evenodd" d="M580.189 237.95C528.148 231.263 467.712 301.833 427.05 407.434C402.01 353.043 349.542 299.523 279.715 263.79C261.901 254.673 243.947 247.222 226.164 241.398C313.653 216.897 373.045 175.802 376.197 129.751C381.196 56.7201 242.865 -1.11843 67.2258 0.564649C-108.413 2.24773 -254.85 62.815 -259.849 135.845C-264.544 204.434 -142.815 259.622 17.5091 264.688C7.79562 274.032 -0.0713746 285.01 -5.72264 297.577C-42.0352 378.326 26.8854 494.119 148.216 556.209C236.731 601.506 328.687 605.706 386.053 573.311C369.705 708.078 398.555 814.773 458.226 822.44C502.019 828.067 551.757 778.985 590.654 700.358C598.112 713.711 607.88 726.073 619.925 736.837C678.166 788.886 767.575 783.867 819.624 725.625C871.673 667.384 866.654 577.975 808.412 525.926C763.616 485.893 700.383 479.62 649.892 505.358C671.234 362.073 642.534 245.96 580.189 237.95Z" fill="url(#paint0_linear_2322_13206)"/>
<defs>
<linearGradient id="paint0_linear_2322_13206" x1="782.301" y1="550.772" x2="207.993" y2="774.084" gradientUnits="userSpaceOnUse">
<stop stop-color="#00F3C7"/>
<stop offset="0.9999" stop-color="#A63AD8"/>
<stop offset="1" stop-color="#A63AD8"/>
</linearGradient>
</defs>
</svg>
