<svg width="42" height="43" viewBox="0 0 42 43" fill="none" xmlns="http://www.w3.org/2000/svg">
<path fill-rule="evenodd" clip-rule="evenodd" d="M40.5246 2.99107C41.1723 2.80604 41.6458 2.22013 41.6458 1.52596C41.6458 0.683196 40.9479 0 40.0881 0C39.2273 0 38.5303 0.683196 38.5303 1.52596C38.5303 2.10946 38.8647 2.61647 39.3558 2.87319C37.9829 14.8259 34.9307 29.3737 27.8995 35.8823C29.3579 33.0642 30.4562 29.5606 31.2967 25.7997C32.4338 20.7122 33.1053 15.1193 33.5436 10.04C34.0638 9.79282 34.422 9.27053 34.422 8.66626C34.422 7.82348 33.7249 7.14029 32.8642 7.14029C32.0043 7.14029 31.3064 7.82348 31.3064 8.66626C31.3064 9.27657 31.6725 9.80316 32.2015 10.0472C31.8609 13.1265 31.4384 16.2313 30.9104 19.205C30.0399 24.107 28.8861 28.6383 27.3565 32.1069C26.2397 34.6375 24.9354 36.5761 23.4128 37.694C24.116 34.6038 24.6097 30.3772 24.9679 25.8116C25.2346 22.4164 25.4282 18.797 25.5725 15.2559C26.0355 14.9913 26.347 14.4998 26.347 13.937C26.347 13.0943 25.6491 12.411 24.7893 12.411C23.9285 12.411 23.2315 13.0943 23.2315 13.937C23.2315 14.5233 23.5686 15.0324 24.0641 15.2879C23.9972 16.6061 23.9241 17.9122 23.844 19.1939C23.5386 24.0954 23.1347 28.6178 22.5996 32.0728C22.332 33.8022 22.0345 35.2394 21.7098 36.3143C21.5434 36.8624 21.378 37.2888 21.2187 37.6057C21.0567 37.9267 20.9089 38.1177 20.7874 38.2148C20.7135 38.2736 20.6651 38.2904 20.6387 38.2948C20.6149 38.2985 20.5929 38.2957 20.563 38.2809C20.4838 38.2414 20.3421 38.1104 20.1608 37.7668C19.8017 37.0833 19.4523 35.8782 19.132 34.241C18.4965 30.9984 18.0292 26.3816 17.6948 21.764C17.6076 20.5703 17.5275 19.3639 17.4519 18.1478C17.8813 17.8762 18.1656 17.403 18.1656 16.8649C18.1656 16.0221 17.4686 15.3389 16.6078 15.3389C15.748 15.3389 15.0501 16.0221 15.0501 16.8649C15.0501 17.5078 15.4567 18.058 16.0314 18.2827C16.2153 22.0669 16.4573 25.947 16.7874 29.4451C17.0849 32.5931 17.4562 35.4578 17.9289 37.674C17.9623 37.8285 17.9958 37.9802 18.0292 38.1291C17.9412 38.0768 17.8532 38.0216 17.766 37.9634C16.6166 37.1965 15.5913 35.9211 14.6795 34.2895C12.8568 31.0244 11.5235 26.3928 10.5703 21.7769C10.367 20.7942 10.1761 19.8028 9.99475 18.8047C10.4665 18.5424 10.7842 18.0459 10.7842 17.4766C10.7842 16.6339 10.0872 15.9507 9.22642 15.9507C8.36656 15.9507 7.66865 16.6339 7.66865 17.4766C7.66865 18.1526 8.1175 18.726 8.73973 18.9264C9.25283 22.5014 9.91466 26.1356 10.8009 29.4296C11.6476 32.5768 12.7028 35.4267 14.0371 37.6209C14.0775 37.6874 14.118 37.7535 14.1585 37.8188C9.36196 34.9757 6.1848 28.5179 4.14208 22.1367C3.65627 20.6177 3.29367 19.0967 2.92667 17.5535C2.84922 17.2285 2.77176 16.9021 2.69255 16.5749C3.15725 16.3109 3.46968 15.8182 3.46968 15.254C3.46968 14.4113 2.77265 13.7281 1.91191 13.7281C1.05205 13.7281 0.354126 14.4113 0.354126 15.254C0.354126 15.9258 0.7977 16.4962 1.41289 16.7C3.59466 27.7665 7.76193 40.3085 17.5663 41.9622C20.6669 42.4852 23.8335 41.8856 26.6128 40.1101C35.7597 34.266 38.7195 19.2057 40.0476 7.82455C40.235 6.2175 40.3926 4.60588 40.5246 2.99107Z" fill="url(#paint0_linear_2322_13227)"/>
<defs>
<linearGradient id="paint0_linear_2322_13227" x1="7.9098" y1="34.5599" x2="33.757" y2="39.7216" gradientUnits="userSpaceOnUse">
<stop stop-color="#00F3C7"/>
<stop offset="1" stop-color="#0ECDC2"/>
</linearGradient>
</defs>
</svg>
