<svg width="25" height="25" viewBox="0 0 25 25" fill="none" xmlns="http://www.w3.org/2000/svg">
<g clip-path="url(#clip0_2367_13265)">
<path d="M24.5505 7.7685C24.5505 7.7685 24.3141 6.09991 23.5862 5.36724C22.6645 4.40295 21.634 4.39822 21.1613 4.3415C17.7768 4.0957 12.6954 4.0957 12.6954 4.0957H12.686C12.686 4.0957 7.60456 4.0957 4.2201 4.3415C3.74741 4.39822 2.71695 4.40295 1.7952 5.36724C1.06726 6.09991 0.835642 7.7685 0.835642 7.7685C0.835642 7.7685 0.589844 9.73017 0.589844 11.6871V13.5211C0.589844 15.4781 0.830916 17.4397 0.830916 17.4397C0.830916 17.4397 1.06726 19.1083 1.79048 19.841C2.71222 20.8053 3.92231 20.7722 4.46117 20.8762C6.3992 21.0605 12.6907 21.1173 12.6907 21.1173C12.6907 21.1173 17.7768 21.1078 21.1613 20.8667C21.634 20.81 22.6645 20.8053 23.5862 19.841C24.3141 19.1083 24.5505 17.4397 24.5505 17.4397C24.5505 17.4397 24.7916 15.4828 24.7916 13.5211V11.6871C24.7916 9.73017 24.5505 7.7685 24.5505 7.7685ZM10.1902 15.7475V8.9455L16.7275 12.3583L10.1902 15.7475Z" fill="white"/>
</g>
<defs>
<clipPath id="clip0_2367_13265">
<rect width="24.2017" height="24.2017" fill="white" transform="translate(0.589844 0.508057)"/>
</clipPath>
</defs>
</svg>
