<svg width="110" height="110" viewBox="0 0 110 110" fill="none" xmlns="http://www.w3.org/2000/svg">
<circle cx="55" cy="55" r="55" fill="#280146"/>
<path d="M50.9738 28.9452L37.6671 33.9585C34.6004 35.1052 32.0938 38.7319 32.0938 41.9852V61.7985C32.0938 64.9452 34.1737 69.0785 36.7071 70.9719L48.1737 79.5319C51.9337 82.3585 58.1204 82.3585 61.8804 79.5319L73.3471 70.9719C75.8804 69.0785 77.9604 64.9452 77.9604 61.7985V41.9852C77.9604 38.7052 75.4538 35.0785 72.3871 33.9319L59.0804 28.9452C56.8138 28.1185 53.1871 28.1185 50.9738 28.9452Z" stroke="#00F3C7" stroke-width="2" stroke-linecap="round" stroke-linejoin="round"/>
<path d="M60.7337 58.8411L49.4004 47.5078" stroke="#00F3C7" stroke-width="2" stroke-miterlimit="10" stroke-linecap="round" stroke-linejoin="round"/>
<path d="M60.599 47.6406L49.2656 58.974" stroke="#00F3C7" stroke-width="2" stroke-miterlimit="10" stroke-linecap="round" stroke-linejoin="round"/>
</svg>
